%TF.GenerationSoftware,KiCad,Pcbnew,(6.0.8)*%
%TF.CreationDate,2022-12-11T00:01:36-05:00*%
%TF.ProjectId,Christmas Ornament 2022,43687269-7374-46d6-9173-204f726e616d,rev?*%
%TF.SameCoordinates,Original*%
%TF.FileFunction,Soldermask,Top*%
%TF.FilePolarity,Negative*%
%FSLAX46Y46*%
G04 Gerber Fmt 4.6, Leading zero omitted, Abs format (unit mm)*
G04 Created by KiCad (PCBNEW (6.0.8)) date 2022-12-11 00:01:36*
%MOMM*%
%LPD*%
G01*
G04 APERTURE LIST*
G04 Aperture macros list*
%AMRoundRect*
0 Rectangle with rounded corners*
0 $1 Rounding radius*
0 $2 $3 $4 $5 $6 $7 $8 $9 X,Y pos of 4 corners*
0 Add a 4 corners polygon primitive as box body*
4,1,4,$2,$3,$4,$5,$6,$7,$8,$9,$2,$3,0*
0 Add four circle primitives for the rounded corners*
1,1,$1+$1,$2,$3*
1,1,$1+$1,$4,$5*
1,1,$1+$1,$6,$7*
1,1,$1+$1,$8,$9*
0 Add four rect primitives between the rounded corners*
20,1,$1+$1,$2,$3,$4,$5,0*
20,1,$1+$1,$4,$5,$6,$7,0*
20,1,$1+$1,$6,$7,$8,$9,0*
20,1,$1+$1,$8,$9,$2,$3,0*%
G04 Aperture macros list end*
%ADD10RoundRect,0.218750X0.218750X0.256250X-0.218750X0.256250X-0.218750X-0.256250X0.218750X-0.256250X0*%
%ADD11RoundRect,0.381000X0.762000X0.381000X-0.762000X0.381000X-0.762000X-0.381000X0.762000X-0.381000X0*%
%ADD12R,1.200000X1.400000*%
%ADD13RoundRect,0.200000X-0.275000X0.200000X-0.275000X-0.200000X0.275000X-0.200000X0.275000X0.200000X0*%
%ADD14RoundRect,0.140000X0.140000X0.170000X-0.140000X0.170000X-0.140000X-0.170000X0.140000X-0.170000X0*%
%ADD15RoundRect,0.140000X0.170000X-0.140000X0.170000X0.140000X-0.170000X0.140000X-0.170000X-0.140000X0*%
%ADD16R,0.850000X0.850000*%
%ADD17O,0.850000X0.850000*%
%ADD18RoundRect,0.140000X-0.170000X0.140000X-0.170000X-0.140000X0.170000X-0.140000X0.170000X0.140000X0*%
%ADD19RoundRect,0.140000X-0.140000X-0.170000X0.140000X-0.170000X0.140000X0.170000X-0.140000X0.170000X0*%
%ADD20O,1.700000X1.700000*%
%ADD21R,1.700000X1.700000*%
%ADD22RoundRect,0.218750X-0.256250X0.218750X-0.256250X-0.218750X0.256250X-0.218750X0.256250X0.218750X0*%
%ADD23RoundRect,0.150000X0.150000X-0.587500X0.150000X0.587500X-0.150000X0.587500X-0.150000X-0.587500X0*%
%ADD24R,2.000000X1.500000*%
%ADD25R,2.000000X3.800000*%
%ADD26RoundRect,0.150000X-0.512500X-0.150000X0.512500X-0.150000X0.512500X0.150000X-0.512500X0.150000X0*%
%ADD27RoundRect,0.050000X0.050000X-0.387500X0.050000X0.387500X-0.050000X0.387500X-0.050000X-0.387500X0*%
%ADD28RoundRect,0.050000X0.387500X-0.050000X0.387500X0.050000X-0.387500X0.050000X-0.387500X-0.050000X0*%
%ADD29R,3.200000X3.200000*%
%ADD30RoundRect,0.150000X0.150000X-0.650000X0.150000X0.650000X-0.150000X0.650000X-0.150000X-0.650000X0*%
%ADD31RoundRect,0.250000X-0.262500X-0.450000X0.262500X-0.450000X0.262500X0.450000X-0.262500X0.450000X0*%
%ADD32RoundRect,0.200000X0.275000X-0.200000X0.275000X0.200000X-0.275000X0.200000X-0.275000X-0.200000X0*%
%ADD33RoundRect,0.135000X0.135000X0.185000X-0.135000X0.185000X-0.135000X-0.185000X0.135000X-0.185000X0*%
%ADD34R,1.100000X2.000000*%
%ADD35R,1.500000X1.000000*%
%ADD36O,1.550000X0.890000*%
%ADD37R,1.550000X1.500000*%
%ADD38O,0.950000X1.250000*%
%ADD39R,1.550000X1.200000*%
%ADD40R,1.350000X0.400000*%
%ADD41C,3.200000*%
%ADD42R,0.600000X0.450000*%
%ADD43RoundRect,0.250000X-0.250000X-0.475000X0.250000X-0.475000X0.250000X0.475000X-0.250000X0.475000X0*%
%ADD44RoundRect,0.250000X-0.475000X0.250000X-0.475000X-0.250000X0.475000X-0.250000X0.475000X0.250000X0*%
%ADD45RoundRect,0.250000X0.250000X0.475000X-0.250000X0.475000X-0.250000X-0.475000X0.250000X-0.475000X0*%
G04 APERTURE END LIST*
D10*
%TO.C,D10*%
X165375000Y-73100000D03*
X163800000Y-73100000D03*
%TD*%
%TO.C,D12*%
X165375000Y-68500000D03*
X163800000Y-68500000D03*
%TD*%
%TO.C,D2*%
X165387500Y-91499999D03*
X163812500Y-91499999D03*
%TD*%
%TO.C,D3*%
X165387500Y-89200000D03*
X163812500Y-89200000D03*
%TD*%
%TO.C,D1*%
X165387500Y-93800000D03*
X163812500Y-93800000D03*
%TD*%
%TO.C,D5*%
X163800000Y-84600000D03*
X165375000Y-84600000D03*
%TD*%
%TO.C,D6*%
X163800000Y-82299999D03*
X165375000Y-82299999D03*
%TD*%
%TO.C,D4*%
X163812500Y-86899999D03*
X165387500Y-86899999D03*
%TD*%
%TO.C,D7*%
X163800000Y-80000002D03*
X165375000Y-80000002D03*
%TD*%
%TO.C,D8*%
X165375000Y-77700000D03*
X163800000Y-77700000D03*
%TD*%
%TO.C,D9*%
X165375000Y-75400000D03*
X163800000Y-75400000D03*
%TD*%
%TO.C,D11*%
X165375000Y-70799999D03*
X163800000Y-70799999D03*
%TD*%
D11*
%TO.C,SW1*%
X142500000Y-148150000D03*
X136500000Y-148150000D03*
X136500000Y-144400000D03*
X142500000Y-144400000D03*
%TD*%
D12*
%TO.C,Y1*%
X160600000Y-118300000D03*
X160600000Y-120500000D03*
X162300000Y-120500000D03*
X162300000Y-118300000D03*
%TD*%
D13*
%TO.C,R20*%
X160500000Y-114975000D03*
X160500000Y-116625000D03*
%TD*%
D14*
%TO.C,C18*%
X162680000Y-116800000D03*
X161720000Y-116800000D03*
%TD*%
D15*
%TO.C,C17*%
X159150000Y-121180000D03*
X159150000Y-120220000D03*
%TD*%
D16*
%TO.C,J4*%
X166300000Y-114900000D03*
D17*
X166300000Y-113900000D03*
X166300000Y-112900000D03*
%TD*%
D16*
%TO.C,J2*%
X155000000Y-128600000D03*
D17*
X155000000Y-127600000D03*
X155000000Y-126600000D03*
%TD*%
D18*
%TO.C,C12*%
X150600000Y-124320000D03*
X150600000Y-125280000D03*
%TD*%
%TO.C,C11*%
X153200000Y-122970000D03*
X153200000Y-123930000D03*
%TD*%
D19*
%TO.C,C10*%
X156820000Y-117300000D03*
X157780000Y-117300000D03*
%TD*%
D15*
%TO.C,C9*%
X153400000Y-112980000D03*
X153400000Y-112020000D03*
%TD*%
%TO.C,C8*%
X149450000Y-112470000D03*
X149450000Y-113430000D03*
%TD*%
D14*
%TO.C,C7*%
X146160000Y-111750000D03*
X145200000Y-111750000D03*
%TD*%
%TO.C,C6*%
X145760000Y-119000000D03*
X144800000Y-119000000D03*
%TD*%
%TO.C,C5*%
X145760000Y-120250000D03*
X144800000Y-120250000D03*
%TD*%
%TO.C,C4*%
X145760000Y-115250000D03*
X144800000Y-115250000D03*
%TD*%
D15*
%TO.C,C3*%
X142700001Y-125180000D03*
X142700001Y-124220000D03*
%TD*%
D14*
%TO.C,C2*%
X145760000Y-121500000D03*
X144800000Y-121500000D03*
%TD*%
D20*
%TO.C,J3*%
X174400000Y-130935000D03*
D21*
X174400000Y-133475000D03*
%TD*%
D13*
%TO.C,R19*%
X165250000Y-138900000D03*
X165250000Y-137250000D03*
%TD*%
D22*
%TO.C,D14*%
X163750000Y-138862500D03*
X163750000Y-137287500D03*
%TD*%
D23*
%TO.C,U5*%
X148000000Y-105862500D03*
X148950000Y-107737500D03*
X147050000Y-107737500D03*
%TD*%
D24*
%TO.C,U4*%
X161150000Y-147900000D03*
D25*
X154850000Y-145600000D03*
D24*
X161150000Y-145600000D03*
X161150000Y-143300000D03*
%TD*%
D26*
%TO.C,U3*%
X170000000Y-142250000D03*
X170000000Y-143200000D03*
X170000000Y-144150000D03*
X172275000Y-144150000D03*
X172275000Y-142250000D03*
%TD*%
D27*
%TO.C,U2*%
X149600000Y-121637500D03*
X150000000Y-121637500D03*
X150400000Y-121637500D03*
X150800000Y-121637500D03*
X151200000Y-121637500D03*
X151600000Y-121637500D03*
X152000000Y-121637500D03*
X152400000Y-121637500D03*
X152800000Y-121637500D03*
X153200000Y-121637500D03*
X153600000Y-121637500D03*
X154000000Y-121637500D03*
X154400000Y-121637500D03*
X154800000Y-121637500D03*
D28*
X155637500Y-120800000D03*
X155637500Y-120400000D03*
X155637500Y-120000000D03*
X155637500Y-119600000D03*
X155637500Y-119200000D03*
X155637500Y-118800000D03*
X155637500Y-118400000D03*
X155637500Y-118000000D03*
X155637500Y-117600000D03*
X155637500Y-117200000D03*
X155637500Y-116800000D03*
X155637500Y-116400000D03*
X155637500Y-116000000D03*
X155637500Y-115600000D03*
D27*
X154800000Y-114762500D03*
X154400000Y-114762500D03*
X154000000Y-114762500D03*
X153600000Y-114762500D03*
X153200000Y-114762500D03*
X152800000Y-114762500D03*
X152400000Y-114762500D03*
X152000000Y-114762500D03*
X151600000Y-114762500D03*
X151200000Y-114762500D03*
X150800000Y-114762500D03*
X150400000Y-114762500D03*
X150000000Y-114762500D03*
X149600000Y-114762500D03*
D28*
X148762500Y-115600000D03*
X148762500Y-116000000D03*
X148762500Y-116400000D03*
X148762500Y-116800000D03*
X148762500Y-117200000D03*
X148762500Y-117600000D03*
X148762500Y-118000000D03*
X148762500Y-118400000D03*
X148762500Y-118800000D03*
X148762500Y-119200000D03*
X148762500Y-119600000D03*
X148762500Y-120000000D03*
X148762500Y-120400000D03*
X148762500Y-120800000D03*
D29*
X152200000Y-118200000D03*
%TD*%
D30*
%TO.C,U1*%
X144295000Y-132050000D03*
X145565000Y-132050000D03*
X146835000Y-132050000D03*
X148105000Y-132050000D03*
X148105000Y-124850000D03*
X146835000Y-124850000D03*
X145565000Y-124850000D03*
X144295000Y-124850000D03*
%TD*%
D31*
%TO.C,R18*%
X169800000Y-146000000D03*
X171625000Y-146000000D03*
%TD*%
%TO.C,R17*%
X166337500Y-145500000D03*
X168162500Y-145500000D03*
%TD*%
D32*
%TO.C,R16*%
X153600000Y-100775000D03*
X153600000Y-102425000D03*
%TD*%
%TO.C,R15*%
X155200000Y-100775000D03*
X155200000Y-102425000D03*
%TD*%
%TO.C,R14*%
X156800000Y-102425000D03*
X156800000Y-100775000D03*
%TD*%
%TO.C,R13*%
X158400000Y-100775000D03*
X158400000Y-102425000D03*
%TD*%
%TO.C,R12*%
X160000000Y-100775000D03*
X160000000Y-102425000D03*
%TD*%
%TO.C,R11*%
X161600000Y-100775000D03*
X161600000Y-102425000D03*
%TD*%
%TO.C,R10*%
X163200000Y-100775000D03*
X163200000Y-102425000D03*
%TD*%
%TO.C,R9*%
X164800000Y-100775000D03*
X164800000Y-102425000D03*
%TD*%
%TO.C,R8*%
X166400000Y-100775000D03*
X166400000Y-102425000D03*
%TD*%
%TO.C,R7*%
X168000000Y-100775000D03*
X168000000Y-102425000D03*
%TD*%
%TO.C,R6*%
X169600000Y-100775000D03*
X169600000Y-102425000D03*
%TD*%
%TO.C,R5*%
X171200000Y-102425000D03*
X171200000Y-100775000D03*
%TD*%
D33*
%TO.C,R4*%
X145790000Y-116500000D03*
X144770000Y-116500000D03*
%TD*%
%TO.C,R3*%
X145790000Y-117750000D03*
X144770000Y-117750000D03*
%TD*%
D13*
%TO.C,R2*%
X144000000Y-134050000D03*
X144000000Y-135700000D03*
%TD*%
D32*
%TO.C,R1*%
X145500000Y-135700000D03*
X145500000Y-134050000D03*
%TD*%
D34*
%TO.C,L1*%
X172012499Y-140000000D03*
X170262499Y-140000000D03*
%TD*%
D35*
%TO.C,JP1*%
X174250000Y-136700000D03*
X174250000Y-138000000D03*
%TD*%
D36*
%TO.C,J1*%
X124685000Y-131300000D03*
D37*
X124685000Y-133800000D03*
D38*
X127385000Y-132300000D03*
D39*
X124685000Y-137700000D03*
D36*
X124685000Y-138300000D03*
D37*
X124685000Y-135800000D03*
D38*
X127385000Y-137300000D03*
D39*
X124685000Y-131900000D03*
D40*
X127385000Y-136100000D03*
X127385000Y-135450000D03*
X127385000Y-134800000D03*
X127385000Y-134150000D03*
X127385000Y-133500000D03*
%TD*%
D41*
%TO.C,H1*%
X163500000Y-54000000D03*
%TD*%
D42*
%TO.C,D13*%
X166950000Y-140450000D03*
X169050000Y-140450000D03*
%TD*%
D43*
%TO.C,C16*%
X166300000Y-143500000D03*
X168200000Y-143500000D03*
%TD*%
%TO.C,C15*%
X166300000Y-147500000D03*
X168200000Y-147500000D03*
%TD*%
%TO.C,C14*%
X147050000Y-103500000D03*
X148950000Y-103500000D03*
%TD*%
D44*
%TO.C,C13*%
X174300000Y-143650000D03*
X174300000Y-141750000D03*
%TD*%
D45*
%TO.C,C1*%
X145880000Y-113500000D03*
X143980000Y-113500000D03*
%TD*%
M02*
