%TF.GenerationSoftware,KiCad,Pcbnew,(6.0.8)*%
%TF.CreationDate,2022-12-11T00:01:36-05:00*%
%TF.ProjectId,Christmas Ornament 2022,43687269-7374-46d6-9173-204f726e616d,rev?*%
%TF.SameCoordinates,Original*%
%TF.FileFunction,Copper,L2,Bot*%
%TF.FilePolarity,Positive*%
%FSLAX46Y46*%
G04 Gerber Fmt 4.6, Leading zero omitted, Abs format (unit mm)*
G04 Created by KiCad (PCBNEW (6.0.8)) date 2022-12-11 00:01:36*
%MOMM*%
%LPD*%
G01*
G04 APERTURE LIST*
%TA.AperFunction,ComponentPad*%
%ADD10R,0.850000X0.850000*%
%TD*%
%TA.AperFunction,ComponentPad*%
%ADD11O,0.850000X0.850000*%
%TD*%
%TA.AperFunction,ComponentPad*%
%ADD12O,1.700000X1.700000*%
%TD*%
%TA.AperFunction,ComponentPad*%
%ADD13R,1.700000X1.700000*%
%TD*%
%TA.AperFunction,ComponentPad*%
%ADD14O,1.550000X0.890000*%
%TD*%
%TA.AperFunction,ComponentPad*%
%ADD15O,0.950000X1.250000*%
%TD*%
%TA.AperFunction,ViaPad*%
%ADD16C,0.800000*%
%TD*%
%TA.AperFunction,Conductor*%
%ADD17C,0.200000*%
%TD*%
G04 APERTURE END LIST*
D10*
%TO.P,J4,1,Pin_1*%
%TO.N,/DBG_SWCLK*%
X166300000Y-114900000D03*
D11*
%TO.P,J4,2,Pin_2*%
%TO.N,/DBG_SWD*%
X166300000Y-113900000D03*
%TO.P,J4,3,Pin_3*%
%TO.N,GND*%
X166300000Y-112900000D03*
%TD*%
D10*
%TO.P,J2,1,Pin_1*%
%TO.N,UART0_TX*%
X155000000Y-128600000D03*
D11*
%TO.P,J2,2,Pin_2*%
%TO.N,UART0_RX*%
X155000000Y-127600000D03*
%TO.P,J2,3,Pin_3*%
%TO.N,GND*%
X155000000Y-126600000D03*
%TD*%
D12*
%TO.P,J3,2,Pin_2*%
%TO.N,GND*%
X174400000Y-130935000D03*
D13*
%TO.P,J3,1,Pin_1*%
%TO.N,+BATT*%
X174400000Y-133475000D03*
%TD*%
D14*
%TO.P,J1,6,Shield*%
%TO.N,unconnected-(J1-Pad6)*%
X124685000Y-131300000D03*
D15*
X127385000Y-132300000D03*
D14*
X124685000Y-138300000D03*
D15*
X127385000Y-137300000D03*
%TD*%
D16*
%TO.N,GND*%
X166800000Y-93800000D03*
X166800000Y-91500000D03*
X166800000Y-89200000D03*
X166800000Y-86900000D03*
X166800000Y-84600000D03*
X166800000Y-82300000D03*
X166800000Y-80000000D03*
X166800000Y-77700000D03*
X166800000Y-75400000D03*
X166812500Y-73100000D03*
X166812500Y-70800000D03*
X166800000Y-68500000D03*
X153300000Y-119300000D03*
X151100000Y-117100000D03*
X151100000Y-119300000D03*
X153300000Y-117100000D03*
%TO.N,/QSPI_SS*%
X146400000Y-136400000D03*
X144200000Y-142800000D03*
%TO.N,GND*%
X163700000Y-148600000D03*
X162800000Y-147500000D03*
X174500000Y-146500000D03*
X173000000Y-146500000D03*
X174500000Y-145500000D03*
X173000000Y-145500000D03*
X162500000Y-136000000D03*
X129000000Y-135500000D03*
X129000000Y-136500000D03*
X154500000Y-111500000D03*
X148500000Y-112000000D03*
X143000000Y-115500000D03*
X142000000Y-112500000D03*
X144500000Y-110500000D03*
X150500000Y-103500000D03*
X149500000Y-105500000D03*
X164000000Y-117000000D03*
X158500000Y-116000000D03*
X157606754Y-119893246D03*
X148000000Y-130000000D03*
X151000000Y-126500000D03*
X154500000Y-124000000D03*
X143500000Y-120500000D03*
X143500000Y-121500000D03*
X142500000Y-123000000D03*
X144500000Y-149000000D03*
X132000000Y-148500000D03*
%TD*%
D17*
%TO.N,/QSPI_SS*%
X146400000Y-140600000D02*
X144200000Y-142800000D01*
X146400000Y-136400000D02*
X146400000Y-140600000D01*
%TD*%
%TA.AperFunction,Conductor*%
%TO.N,GND*%
G36*
X169859646Y-67118907D02*
G01*
X169895610Y-67168407D01*
X169900454Y-67198544D01*
X170000000Y-88800000D01*
X174500000Y-104000000D01*
X176901000Y-104000000D01*
X176959191Y-104018907D01*
X176995155Y-104068407D01*
X177000000Y-104099000D01*
X177000000Y-150401000D01*
X176981093Y-150459191D01*
X176931593Y-150495155D01*
X176901000Y-150500000D01*
X134523370Y-150500000D01*
X134479096Y-150489548D01*
X130506953Y-148503476D01*
X130493684Y-148495488D01*
X127018488Y-146013206D01*
X126989119Y-145980052D01*
X125254545Y-142800000D01*
X143654836Y-142800000D01*
X143673412Y-142941099D01*
X143727874Y-143072582D01*
X143731820Y-143077724D01*
X143731822Y-143077728D01*
X143810560Y-143180340D01*
X143814511Y-143185489D01*
X143819660Y-143189440D01*
X143922272Y-143268178D01*
X143922276Y-143268180D01*
X143927418Y-143272126D01*
X144058901Y-143326588D01*
X144200000Y-143345164D01*
X144341099Y-143326588D01*
X144472582Y-143272126D01*
X144477724Y-143268180D01*
X144477728Y-143268178D01*
X144580340Y-143189440D01*
X144585489Y-143185489D01*
X144589440Y-143180340D01*
X144668178Y-143077728D01*
X144668180Y-143077724D01*
X144672126Y-143072582D01*
X144726588Y-142941099D01*
X144745164Y-142800000D01*
X144727682Y-142667212D01*
X144738832Y-142607052D01*
X144755831Y-142584287D01*
X146563791Y-140776328D01*
X146567552Y-140772760D01*
X146591181Y-140751485D01*
X146591182Y-140751484D01*
X146598915Y-140744521D01*
X146608840Y-140722229D01*
X146616250Y-140708583D01*
X146623876Y-140696840D01*
X146623877Y-140696836D01*
X146629543Y-140688112D01*
X146631171Y-140677836D01*
X146633543Y-140671655D01*
X146634889Y-140667109D01*
X146636267Y-140660629D01*
X146640500Y-140651120D01*
X146640500Y-140626719D01*
X146641719Y-140611232D01*
X146643909Y-140597408D01*
X146643909Y-140597406D01*
X146645536Y-140587132D01*
X146642844Y-140577083D01*
X146642497Y-140570473D01*
X146640500Y-140555302D01*
X146640500Y-136945565D01*
X146659407Y-136887374D01*
X146679233Y-136867023D01*
X146780337Y-136789443D01*
X146780340Y-136789440D01*
X146785489Y-136785489D01*
X146789440Y-136780340D01*
X146868178Y-136677728D01*
X146868180Y-136677724D01*
X146872126Y-136672582D01*
X146926588Y-136541099D01*
X146945164Y-136400000D01*
X146926588Y-136258901D01*
X146872126Y-136127418D01*
X146868180Y-136122276D01*
X146868178Y-136122272D01*
X146789440Y-136019660D01*
X146785489Y-136014511D01*
X146780340Y-136010560D01*
X146677728Y-135931822D01*
X146677724Y-135931820D01*
X146672582Y-135927874D01*
X146541099Y-135873412D01*
X146400000Y-135854836D01*
X146258901Y-135873412D01*
X146127418Y-135927874D01*
X146122276Y-135931820D01*
X146122272Y-135931822D01*
X146019660Y-136010560D01*
X146014511Y-136014511D01*
X146010560Y-136019660D01*
X145931822Y-136122272D01*
X145931820Y-136122276D01*
X145927874Y-136127418D01*
X145873412Y-136258901D01*
X145854836Y-136400000D01*
X145873412Y-136541099D01*
X145927874Y-136672582D01*
X145931820Y-136677724D01*
X145931822Y-136677728D01*
X146010560Y-136780340D01*
X146014511Y-136785489D01*
X146019660Y-136789440D01*
X146019663Y-136789443D01*
X146120767Y-136867023D01*
X146155423Y-136917448D01*
X146159500Y-136945565D01*
X146159500Y-140459373D01*
X146140593Y-140517564D01*
X146130504Y-140529377D01*
X144415713Y-142244169D01*
X144361196Y-142271946D01*
X144332789Y-142272318D01*
X144200000Y-142254836D01*
X144058901Y-142273412D01*
X143927418Y-142327874D01*
X143922276Y-142331820D01*
X143922272Y-142331822D01*
X143819660Y-142410560D01*
X143814511Y-142414511D01*
X143810560Y-142419660D01*
X143731822Y-142522272D01*
X143731820Y-142522276D01*
X143727874Y-142527418D01*
X143673412Y-142658901D01*
X143654836Y-142800000D01*
X125254545Y-142800000D01*
X124006059Y-140511109D01*
X123996929Y-140487718D01*
X123502956Y-138511824D01*
X123500000Y-138487813D01*
X123500000Y-138300000D01*
X123764448Y-138300000D01*
X123784571Y-138452846D01*
X123787054Y-138458840D01*
X123841082Y-138589278D01*
X123841084Y-138589281D01*
X123843567Y-138595276D01*
X123937417Y-138717583D01*
X124059724Y-138811433D01*
X124065719Y-138813916D01*
X124065722Y-138813918D01*
X124159349Y-138852699D01*
X124202154Y-138870429D01*
X124208583Y-138871275D01*
X124208585Y-138871276D01*
X124313414Y-138885077D01*
X124316627Y-138885500D01*
X125053373Y-138885500D01*
X125056586Y-138885077D01*
X125161415Y-138871276D01*
X125161417Y-138871275D01*
X125167846Y-138870429D01*
X125210651Y-138852699D01*
X125304278Y-138813918D01*
X125304281Y-138813916D01*
X125310276Y-138811433D01*
X125432583Y-138717583D01*
X125526433Y-138595276D01*
X125528916Y-138589281D01*
X125528918Y-138589278D01*
X125582946Y-138458840D01*
X125585429Y-138452846D01*
X125605552Y-138300000D01*
X125585429Y-138147154D01*
X125567699Y-138104349D01*
X125528918Y-138010722D01*
X125528916Y-138010719D01*
X125526433Y-138004724D01*
X125432583Y-137882417D01*
X125310276Y-137788567D01*
X125304281Y-137786084D01*
X125304278Y-137786082D01*
X125200477Y-137743087D01*
X125167846Y-137729571D01*
X125161417Y-137728725D01*
X125161415Y-137728724D01*
X125056586Y-137714923D01*
X125053373Y-137714500D01*
X124316627Y-137714500D01*
X124313414Y-137714923D01*
X124208585Y-137728724D01*
X124208583Y-137728725D01*
X124202154Y-137729571D01*
X124169523Y-137743087D01*
X124065722Y-137786082D01*
X124065719Y-137786084D01*
X124059724Y-137788567D01*
X123937417Y-137882417D01*
X123843567Y-138004724D01*
X123841084Y-138010719D01*
X123841082Y-138010722D01*
X123802301Y-138104349D01*
X123784571Y-138147154D01*
X123764448Y-138300000D01*
X123500000Y-138300000D01*
X123500000Y-137488724D01*
X126769500Y-137488724D01*
X126784099Y-137604285D01*
X126841346Y-137748876D01*
X126845005Y-137753912D01*
X126892440Y-137819200D01*
X126932754Y-137874688D01*
X126937549Y-137878654D01*
X126937551Y-137878657D01*
X126985572Y-137918383D01*
X127052577Y-137973814D01*
X127058210Y-137976465D01*
X127058212Y-137976466D01*
X127118264Y-138004724D01*
X127193288Y-138040028D01*
X127346045Y-138069168D01*
X127501250Y-138059403D01*
X127569042Y-138037376D01*
X127643230Y-138013271D01*
X127643233Y-138013270D01*
X127649150Y-138011347D01*
X127654403Y-138008014D01*
X127654406Y-138008012D01*
X127753684Y-137945008D01*
X127780453Y-137928020D01*
X127784713Y-137923483D01*
X127784716Y-137923481D01*
X127882642Y-137819200D01*
X127882643Y-137819199D01*
X127886908Y-137814657D01*
X127961826Y-137678382D01*
X128000500Y-137527756D01*
X128000500Y-137111276D01*
X127985901Y-136995715D01*
X127928654Y-136851124D01*
X127880861Y-136785343D01*
X127840905Y-136730348D01*
X127840904Y-136730347D01*
X127837246Y-136725312D01*
X127832451Y-136721346D01*
X127832449Y-136721343D01*
X127773506Y-136672582D01*
X127717423Y-136626186D01*
X127711790Y-136623535D01*
X127711788Y-136623534D01*
X127633573Y-136586729D01*
X127576712Y-136559972D01*
X127423955Y-136530832D01*
X127268750Y-136540597D01*
X127227631Y-136553957D01*
X127126770Y-136586729D01*
X127126767Y-136586730D01*
X127120850Y-136588653D01*
X127115597Y-136591986D01*
X127115594Y-136591988D01*
X127065886Y-136623534D01*
X126989547Y-136671980D01*
X126985287Y-136676517D01*
X126985284Y-136676519D01*
X126887790Y-136780340D01*
X126883092Y-136785343D01*
X126808174Y-136921618D01*
X126769500Y-137072244D01*
X126769500Y-137488724D01*
X123500000Y-137488724D01*
X123500000Y-134344748D01*
X173349500Y-134344748D01*
X173361133Y-134403231D01*
X173405448Y-134469552D01*
X173471769Y-134513867D01*
X173481332Y-134515769D01*
X173481334Y-134515770D01*
X173504005Y-134520279D01*
X173530252Y-134525500D01*
X175269748Y-134525500D01*
X175295995Y-134520279D01*
X175318666Y-134515770D01*
X175318668Y-134515769D01*
X175328231Y-134513867D01*
X175394552Y-134469552D01*
X175438867Y-134403231D01*
X175450500Y-134344748D01*
X175450500Y-132605252D01*
X175438867Y-132546769D01*
X175394552Y-132480448D01*
X175328231Y-132436133D01*
X175318668Y-132434231D01*
X175318666Y-132434230D01*
X175295995Y-132429721D01*
X175269748Y-132424500D01*
X173530252Y-132424500D01*
X173504005Y-132429721D01*
X173481334Y-132434230D01*
X173481332Y-132434231D01*
X173471769Y-132436133D01*
X173405448Y-132480448D01*
X173361133Y-132546769D01*
X173349500Y-132605252D01*
X173349500Y-134344748D01*
X123500000Y-134344748D01*
X123500000Y-132488724D01*
X126769500Y-132488724D01*
X126784099Y-132604285D01*
X126841346Y-132748876D01*
X126845005Y-132753912D01*
X126892440Y-132819200D01*
X126932754Y-132874688D01*
X126937549Y-132878654D01*
X126937551Y-132878657D01*
X126985572Y-132918383D01*
X127052577Y-132973814D01*
X127058210Y-132976465D01*
X127058212Y-132976466D01*
X127122933Y-133006921D01*
X127193288Y-133040028D01*
X127346045Y-133069168D01*
X127501250Y-133059403D01*
X127569042Y-133037376D01*
X127643230Y-133013271D01*
X127643233Y-133013270D01*
X127649150Y-133011347D01*
X127654403Y-133008014D01*
X127654406Y-133008012D01*
X127714802Y-132969683D01*
X127780453Y-132928020D01*
X127784713Y-132923483D01*
X127784716Y-132923481D01*
X127882642Y-132819200D01*
X127882643Y-132819199D01*
X127886908Y-132814657D01*
X127961826Y-132678382D01*
X128000500Y-132527756D01*
X128000500Y-132111276D01*
X127985901Y-131995715D01*
X127928654Y-131851124D01*
X127880861Y-131785343D01*
X127840905Y-131730348D01*
X127840904Y-131730347D01*
X127837246Y-131725312D01*
X127832451Y-131721346D01*
X127832449Y-131721343D01*
X127778265Y-131676519D01*
X127717423Y-131626186D01*
X127711790Y-131623535D01*
X127711788Y-131623534D01*
X127633573Y-131586729D01*
X127576712Y-131559972D01*
X127423955Y-131530832D01*
X127268750Y-131540597D01*
X127262825Y-131542522D01*
X127262826Y-131542522D01*
X127126770Y-131586729D01*
X127126767Y-131586730D01*
X127120850Y-131588653D01*
X127115597Y-131591986D01*
X127115594Y-131591988D01*
X127102300Y-131600425D01*
X126989547Y-131671980D01*
X126985287Y-131676517D01*
X126985284Y-131676519D01*
X126887358Y-131780800D01*
X126883092Y-131785343D01*
X126808174Y-131921618D01*
X126769500Y-132072244D01*
X126769500Y-132488724D01*
X123500000Y-132488724D01*
X123500000Y-131300000D01*
X123764448Y-131300000D01*
X123784571Y-131452846D01*
X123787054Y-131458840D01*
X123841082Y-131589278D01*
X123841084Y-131589281D01*
X123843567Y-131595276D01*
X123937417Y-131717583D01*
X124059724Y-131811433D01*
X124065719Y-131813916D01*
X124065722Y-131813918D01*
X124143389Y-131846088D01*
X124202154Y-131870429D01*
X124208583Y-131871275D01*
X124208585Y-131871276D01*
X124313414Y-131885077D01*
X124316627Y-131885500D01*
X125053373Y-131885500D01*
X125056586Y-131885077D01*
X125161415Y-131871276D01*
X125161417Y-131871275D01*
X125167846Y-131870429D01*
X125226611Y-131846088D01*
X125304278Y-131813918D01*
X125304281Y-131813916D01*
X125310276Y-131811433D01*
X125432583Y-131717583D01*
X125526433Y-131595276D01*
X125528916Y-131589281D01*
X125528918Y-131589278D01*
X125582946Y-131458840D01*
X125585429Y-131452846D01*
X125605552Y-131300000D01*
X125585429Y-131147154D01*
X125567699Y-131104349D01*
X125528918Y-131010722D01*
X125528916Y-131010719D01*
X125526433Y-131004724D01*
X125432583Y-130882417D01*
X125310276Y-130788567D01*
X125304281Y-130786084D01*
X125304278Y-130786082D01*
X125210651Y-130747301D01*
X125167846Y-130729571D01*
X125161417Y-130728725D01*
X125161415Y-130728724D01*
X125056586Y-130714923D01*
X125053373Y-130714500D01*
X124316627Y-130714500D01*
X124313414Y-130714923D01*
X124208585Y-130728724D01*
X124208583Y-130728725D01*
X124202154Y-130729571D01*
X124159349Y-130747301D01*
X124065722Y-130786082D01*
X124065719Y-130786084D01*
X124059724Y-130788567D01*
X123937417Y-130882417D01*
X123843567Y-131004724D01*
X123841084Y-131010719D01*
X123841082Y-131010722D01*
X123802301Y-131104349D01*
X123784571Y-131147154D01*
X123764448Y-131300000D01*
X123500000Y-131300000D01*
X123500000Y-130571356D01*
X123518907Y-130513165D01*
X123567693Y-130477436D01*
X125028974Y-129990342D01*
X126500000Y-129500000D01*
X126869712Y-129165499D01*
X128600000Y-127600000D01*
X154429620Y-127600000D01*
X154449055Y-127747625D01*
X154506036Y-127885190D01*
X154509985Y-127890337D01*
X154509986Y-127890338D01*
X154526356Y-127911672D01*
X154546779Y-127969348D01*
X154529401Y-128028013D01*
X154502816Y-128054253D01*
X154473705Y-128073705D01*
X154442651Y-128120179D01*
X154434500Y-128161159D01*
X154434501Y-129038840D01*
X154442651Y-129079821D01*
X154473705Y-129126295D01*
X154520179Y-129157349D01*
X154529741Y-129159251D01*
X154549701Y-129163221D01*
X154561159Y-129165500D01*
X154999909Y-129165500D01*
X155438840Y-129165499D01*
X155461626Y-129160968D01*
X155470258Y-129159251D01*
X155470259Y-129159251D01*
X155479821Y-129157349D01*
X155526295Y-129126295D01*
X155557349Y-129079821D01*
X155565500Y-129038841D01*
X155565499Y-128161160D01*
X155557349Y-128120179D01*
X155526295Y-128073705D01*
X155497184Y-128054253D01*
X155459306Y-128006202D01*
X155456904Y-127945064D01*
X155473644Y-127911672D01*
X155490014Y-127890338D01*
X155490015Y-127890337D01*
X155493964Y-127885190D01*
X155550945Y-127747625D01*
X155570380Y-127600000D01*
X155550945Y-127452375D01*
X155493964Y-127314810D01*
X155403320Y-127196680D01*
X155285190Y-127106036D01*
X155147625Y-127049055D01*
X155141197Y-127048209D01*
X155141194Y-127048208D01*
X155006434Y-127030467D01*
X155000000Y-127029620D01*
X154993566Y-127030467D01*
X154858806Y-127048208D01*
X154858803Y-127048209D01*
X154852375Y-127049055D01*
X154714810Y-127106036D01*
X154596680Y-127196680D01*
X154506036Y-127314810D01*
X154449055Y-127452375D01*
X154429620Y-127600000D01*
X128600000Y-127600000D01*
X136991719Y-120007493D01*
X136991720Y-120007491D01*
X137000000Y-120000000D01*
X139479206Y-113900000D01*
X165729620Y-113900000D01*
X165749055Y-114047625D01*
X165806036Y-114185190D01*
X165809985Y-114190337D01*
X165809986Y-114190338D01*
X165826356Y-114211672D01*
X165846779Y-114269348D01*
X165829401Y-114328013D01*
X165802816Y-114354253D01*
X165773705Y-114373705D01*
X165742651Y-114420179D01*
X165734500Y-114461159D01*
X165734501Y-115338840D01*
X165742651Y-115379821D01*
X165773705Y-115426295D01*
X165820179Y-115457349D01*
X165829741Y-115459251D01*
X165849701Y-115463221D01*
X165861159Y-115465500D01*
X166299909Y-115465500D01*
X166738840Y-115465499D01*
X166761626Y-115460968D01*
X166770258Y-115459251D01*
X166770259Y-115459251D01*
X166779821Y-115457349D01*
X166826295Y-115426295D01*
X166857349Y-115379821D01*
X166865500Y-115338841D01*
X166865499Y-114461160D01*
X166857349Y-114420179D01*
X166826295Y-114373705D01*
X166797184Y-114354253D01*
X166759306Y-114306202D01*
X166756904Y-114245064D01*
X166773644Y-114211672D01*
X166790014Y-114190338D01*
X166790015Y-114190337D01*
X166793964Y-114185190D01*
X166850945Y-114047625D01*
X166870380Y-113900000D01*
X166850945Y-113752375D01*
X166793964Y-113614810D01*
X166703320Y-113496680D01*
X166585190Y-113406036D01*
X166447625Y-113349055D01*
X166441197Y-113348209D01*
X166441194Y-113348208D01*
X166306434Y-113330467D01*
X166300000Y-113329620D01*
X166293566Y-113330467D01*
X166158806Y-113348208D01*
X166158803Y-113348209D01*
X166152375Y-113349055D01*
X166014810Y-113406036D01*
X165896680Y-113496680D01*
X165806036Y-113614810D01*
X165749055Y-113752375D01*
X165729620Y-113900000D01*
X139479206Y-113900000D01*
X158474914Y-67161724D01*
X158514339Y-67114935D01*
X158566628Y-67100000D01*
X169801455Y-67100000D01*
X169859646Y-67118907D01*
G37*
%TD.AperFunction*%
%TD*%
M02*
