M48
; DRILL file {KiCad (6.0.8)} date Sun Dec 11 00:01:39 2022
; FORMAT={-:-/ absolute / inch / decimal}
; #@! TF.CreationDate,2022-12-11T00:01:39-05:00
; #@! TF.GenerationSoftware,Kicad,Pcbnew,(6.0.8)
; #@! TF.FileFunction,Plated,1,2,PTH
FMAT,2
INCH
; #@! TA.AperFunction,Plated,PTH,ViaDrill
T1C0.0157
; #@! TA.AperFunction,Plated,PTH,ComponentDrill
T2C0.0197
; #@! TA.AperFunction,Plated,PTH,ComponentDrill
T3C0.0217
; #@! TA.AperFunction,Plated,PTH,ComponentDrill
T4C0.0394
%
G90
G05
T1
X5.0787Y-5.3346
X5.0787Y-5.374
X5.1969Y-5.8465
X5.5906Y-4.4291
X5.6102Y-4.8425
X5.6299Y-4.5472
X5.6496Y-4.7441
X5.6496Y-4.7835
X5.6772Y-5.622
X5.689Y-4.3504
X5.689Y-5.8661
X5.7638Y-5.3701
X5.8268Y-5.1181
X5.8465Y-4.4094
X5.8858Y-4.1535
X5.9252Y-4.0748
X5.9449Y-4.9803
X5.9488Y-4.6102
X5.9488Y-4.6969
X6.0354Y-4.6102
X6.0354Y-4.6969
X6.0827Y-4.3898
X6.0827Y-4.8819
X6.205Y-4.7202
X6.2402Y-4.5669
X6.3976Y-5.3543
X6.4094Y-5.8071
X6.4449Y-5.8504
X6.4567Y-4.6063
X6.5669Y-2.6969
X6.5669Y-2.9685
X6.5669Y-3.0591
X6.5669Y-3.1496
X6.5669Y-3.2402
X6.5669Y-3.3307
X6.5669Y-3.4213
X6.5669Y-3.5118
X6.5669Y-3.6024
X6.5669Y-3.6929
X6.5674Y-2.7874
X6.5674Y-2.878
X6.811Y-5.7283
X6.811Y-5.7677
X6.8701Y-5.7283
X6.8701Y-5.7677
T2
X6.1024Y-4.9843
X6.1024Y-5.0236
X6.1024Y-5.063
X6.5472Y-4.4449
X6.5472Y-4.4843
X6.5472Y-4.5236
T4
X6.8661Y-5.1549
X6.8661Y-5.2549
T2
G00X4.9217Y-5.1693
M15
G01X4.8961Y-5.1693
M16
G05
G00X4.9217Y-5.4449
M15
G01X4.8961Y-5.4449
M16
G05
T3
G00X5.0152Y-5.2028
M15
G01X5.0152Y-5.2146
M16
G05
G00X5.0152Y-5.3996
M15
G01X5.0152Y-5.4114
M16
G05
T0
M30
