%TF.GenerationSoftware,KiCad,Pcbnew,(6.0.8)*%
%TF.CreationDate,2022-12-11T00:01:39-05:00*%
%TF.ProjectId,Christmas Ornament 2022,43687269-7374-46d6-9173-204f726e616d,rev?*%
%TF.SameCoordinates,Original*%
%TF.FileFunction,Drillmap*%
%TF.FilePolarity,Positive*%
%FSLAX45Y45*%
G04 Gerber Fmt 4.5, Leading zero omitted, Abs format (unit mm)*
G04 Created by KiCad (PCBNEW (6.0.8)) date 2022-12-11 00:01:39*
%MOMM*%
%LPD*%
G01*
G04 APERTURE LIST*
%ADD10C,0.007000*%
%ADD11C,0.200000*%
%ADD12C,0.320000*%
G04 APERTURE END LIST*
D10*
X20424140Y-13186345D02*
X20422562Y-13126205D01*
X20417871Y-13066733D01*
X20410133Y-13007979D01*
X20399410Y-12949995D01*
X20385769Y-12892834D01*
X20369273Y-12836546D01*
X20349987Y-12781185D01*
X20327976Y-12726802D01*
X20303304Y-12673449D01*
X20276036Y-12621178D01*
X20246236Y-12570041D01*
X20213969Y-12520089D01*
X20179300Y-12471375D01*
X20142293Y-12423950D01*
X20103012Y-12377867D01*
X20061523Y-12333178D01*
X20017890Y-12289933D01*
X19972177Y-12248186D01*
X19924449Y-12207988D01*
X19874771Y-12169391D01*
X19823207Y-12132446D01*
X19769821Y-12097207D01*
X19714679Y-12063724D01*
X19657844Y-12032050D01*
X19599382Y-12002237D01*
X19539357Y-11974336D01*
X19477834Y-11948400D01*
X19414877Y-11924479D01*
X19350550Y-11902627D01*
X19284919Y-11882896D01*
X19218047Y-11865336D01*
X19150000Y-11850000D01*
X20424140Y-13806867D02*
X20424140Y-13186345D01*
X18734177Y-15187052D02*
X18821142Y-15185256D01*
X18906967Y-15179926D01*
X18991543Y-15171149D01*
X19074765Y-15159011D01*
X19156527Y-15143600D01*
X19236723Y-15125001D01*
X19315246Y-15103303D01*
X19391990Y-15078590D01*
X19466849Y-15050951D01*
X19539717Y-15020471D01*
X19610487Y-14987238D01*
X19679054Y-14951338D01*
X19745312Y-14912858D01*
X19809153Y-14871884D01*
X19870473Y-14828504D01*
X19929164Y-14782805D01*
X19985121Y-14734872D01*
X20038237Y-14684792D01*
X20088406Y-14632653D01*
X20135523Y-14578541D01*
X20179480Y-14522542D01*
X20220172Y-14464744D01*
X20257493Y-14405233D01*
X20291335Y-14344096D01*
X20321594Y-14281420D01*
X20348163Y-14217291D01*
X20370936Y-14151796D01*
X20389806Y-14085022D01*
X20404668Y-14017055D01*
X20415415Y-13947982D01*
X20421941Y-13877891D01*
X20424140Y-13806867D01*
X14000277Y-15187052D02*
X18734177Y-15187052D01*
X12310314Y-13806867D02*
X12312512Y-13877891D01*
X12319039Y-13947982D01*
X12329786Y-14017055D01*
X12344647Y-14085022D01*
X12363518Y-14151796D01*
X12386290Y-14217291D01*
X12412859Y-14281420D01*
X12443118Y-14344096D01*
X12476961Y-14405233D01*
X12514282Y-14464744D01*
X12554974Y-14522542D01*
X12598931Y-14578541D01*
X12646047Y-14632653D01*
X12696217Y-14684792D01*
X12749333Y-14734872D01*
X12805290Y-14782805D01*
X12863981Y-14828504D01*
X12925300Y-14871884D01*
X12989142Y-14912858D01*
X13055399Y-14951338D01*
X13123966Y-14987238D01*
X13194737Y-15020471D01*
X13267605Y-15050951D01*
X13342464Y-15078590D01*
X13419208Y-15103303D01*
X13497731Y-15125001D01*
X13577926Y-15143600D01*
X13659688Y-15159011D01*
X13742911Y-15171149D01*
X13827487Y-15179926D01*
X13913311Y-15185256D01*
X14000277Y-15187052D01*
X12310314Y-13186345D02*
X12310314Y-13806867D01*
X13584454Y-11850000D02*
X13516407Y-11865336D01*
X13449535Y-11882896D01*
X13383904Y-11902627D01*
X13319577Y-11924479D01*
X13256620Y-11948400D01*
X13195096Y-11974336D01*
X13135071Y-12002237D01*
X13076609Y-12032050D01*
X13019775Y-12063724D01*
X12964633Y-12097207D01*
X12911247Y-12132446D01*
X12859683Y-12169391D01*
X12810004Y-12207988D01*
X12762276Y-12248186D01*
X12716564Y-12289933D01*
X12672930Y-12333178D01*
X12631441Y-12377867D01*
X12592161Y-12423950D01*
X12555154Y-12471375D01*
X12520484Y-12520089D01*
X12488218Y-12570041D01*
X12458418Y-12621178D01*
X12431150Y-12673449D01*
X12406478Y-12726802D01*
X12384467Y-12781185D01*
X12365181Y-12836546D01*
X12348685Y-12892834D01*
X12335043Y-12949995D01*
X12324321Y-13007979D01*
X12316582Y-13066733D01*
X12311891Y-13126205D01*
X12310314Y-13186345D01*
X14662328Y-9352418D02*
X13584454Y-11850000D01*
X15797500Y-6145000D02*
X15811720Y-6164484D01*
X15817485Y-6200281D01*
X15815321Y-6251281D01*
X15805752Y-6316374D01*
X15789304Y-6394449D01*
X15766500Y-6484396D01*
X15737867Y-6585105D01*
X15703928Y-6695465D01*
X15665208Y-6814365D01*
X15622233Y-6940696D01*
X15575526Y-7073347D01*
X15525614Y-7211207D01*
X15473021Y-7353167D01*
X15418271Y-7498115D01*
X15361889Y-7644942D01*
X15304401Y-7792536D01*
X15246331Y-7939789D01*
X15188204Y-8085588D01*
X15130544Y-8228824D01*
X15073877Y-8368387D01*
X15018728Y-8503166D01*
X14965620Y-8632050D01*
X14915080Y-8753930D01*
X14867631Y-8867694D01*
X14823800Y-8972233D01*
X14784109Y-9066436D01*
X14749085Y-9149193D01*
X14719252Y-9219393D01*
X14695135Y-9275926D01*
X14677259Y-9317681D01*
X14666148Y-9343549D01*
X14662328Y-9352418D01*
X15430627Y-5402007D02*
X15431299Y-5437968D01*
X15433276Y-5473562D01*
X15436495Y-5508746D01*
X15440897Y-5543472D01*
X15446421Y-5577696D01*
X15453005Y-5611372D01*
X15460590Y-5644453D01*
X15469114Y-5676895D01*
X15478516Y-5708652D01*
X15488737Y-5739678D01*
X15499714Y-5769928D01*
X15511388Y-5799356D01*
X15523697Y-5827915D01*
X15536581Y-5855562D01*
X15549979Y-5882250D01*
X15563831Y-5907933D01*
X15578074Y-5932565D01*
X15592650Y-5956102D01*
X15607496Y-5978498D01*
X15622552Y-5999706D01*
X15637758Y-6019681D01*
X15653052Y-6038379D01*
X15668375Y-6055752D01*
X15683664Y-6071755D01*
X15698859Y-6086343D01*
X15713901Y-6099471D01*
X15728726Y-6111091D01*
X15743276Y-6121160D01*
X15757489Y-6129631D01*
X15771305Y-6136458D01*
X15784662Y-6141596D01*
X15797500Y-6145000D01*
X16367227Y-4465407D02*
X16319029Y-4466626D01*
X16271465Y-4470243D01*
X16224591Y-4476199D01*
X16178469Y-4484436D01*
X16133155Y-4494894D01*
X16088710Y-4507515D01*
X16045192Y-4522240D01*
X16002659Y-4539010D01*
X15961171Y-4557766D01*
X15920787Y-4578450D01*
X15881565Y-4601002D01*
X15843564Y-4625363D01*
X15806844Y-4651476D01*
X15771462Y-4679281D01*
X15737478Y-4708718D01*
X15704950Y-4739730D01*
X15673938Y-4772258D01*
X15644500Y-4806242D01*
X15616696Y-4841624D01*
X15590583Y-4878345D01*
X15566221Y-4916345D01*
X15543669Y-4955567D01*
X15522986Y-4995952D01*
X15504230Y-5037440D01*
X15487460Y-5079972D01*
X15472735Y-5123490D01*
X15460114Y-5167936D01*
X15449655Y-5213249D01*
X15441419Y-5259372D01*
X15435463Y-5306245D01*
X15431846Y-5353809D01*
X15430627Y-5402007D01*
X17303827Y-5402007D02*
X17302608Y-5353809D01*
X17298991Y-5306245D01*
X17293035Y-5259372D01*
X17284798Y-5213249D01*
X17274340Y-5167936D01*
X17261719Y-5123490D01*
X17246994Y-5079972D01*
X17230224Y-5037439D01*
X17211468Y-4995952D01*
X17190784Y-4955567D01*
X17168232Y-4916345D01*
X17143870Y-4878345D01*
X17117758Y-4841624D01*
X17089953Y-4806242D01*
X17060515Y-4772258D01*
X17029503Y-4739730D01*
X16996976Y-4708718D01*
X16962992Y-4679281D01*
X16927610Y-4651476D01*
X16890889Y-4625363D01*
X16852888Y-4601002D01*
X16813667Y-4578450D01*
X16773282Y-4557766D01*
X16731794Y-4539010D01*
X16689262Y-4522240D01*
X16645743Y-4507515D01*
X16601298Y-4494894D01*
X16555985Y-4484436D01*
X16509862Y-4476199D01*
X16462989Y-4470243D01*
X16415424Y-4466626D01*
X16367227Y-4465407D01*
X16960000Y-6142500D02*
X16970744Y-6139326D01*
X16982138Y-6134403D01*
X16994118Y-6127776D01*
X17006617Y-6119493D01*
X17019571Y-6109600D01*
X17032915Y-6098141D01*
X17046583Y-6085164D01*
X17060512Y-6070715D01*
X17074636Y-6054839D01*
X17088890Y-6037582D01*
X17103209Y-6018992D01*
X17117528Y-5999113D01*
X17131782Y-5977993D01*
X17145906Y-5955676D01*
X17159835Y-5932209D01*
X17173504Y-5907639D01*
X17186848Y-5882011D01*
X17199802Y-5855371D01*
X17212302Y-5827766D01*
X17224281Y-5799242D01*
X17235676Y-5769844D01*
X17246420Y-5739618D01*
X17256450Y-5708612D01*
X17265700Y-5676871D01*
X17274105Y-5644440D01*
X17281601Y-5611367D01*
X17288121Y-5577697D01*
X17293602Y-5543476D01*
X17297978Y-5508750D01*
X17301184Y-5473566D01*
X17303155Y-5437970D01*
X17303827Y-5402007D01*
X18072126Y-9352418D02*
X18068737Y-9343529D01*
X18058867Y-9317605D01*
X18042962Y-9275759D01*
X18021468Y-9219106D01*
X17994830Y-9148759D01*
X17963494Y-9065831D01*
X17927906Y-8971436D01*
X17888512Y-8866689D01*
X17845757Y-8752702D01*
X17800087Y-8630589D01*
X17751948Y-8501465D01*
X17701785Y-8366443D01*
X17650044Y-8226636D01*
X17597172Y-8083159D01*
X17543613Y-7937124D01*
X17489813Y-7789646D01*
X17436218Y-7641839D01*
X17383274Y-7494816D01*
X17331427Y-7349690D01*
X17281122Y-7207576D01*
X17232805Y-7069588D01*
X17186921Y-6936838D01*
X17143917Y-6810441D01*
X17104238Y-6691511D01*
X17068330Y-6581160D01*
X17036639Y-6480503D01*
X17009610Y-6390654D01*
X16987689Y-6312726D01*
X16971322Y-6247833D01*
X16960954Y-6197088D01*
X16957032Y-6161606D01*
X16960000Y-6142500D01*
X19150000Y-11850000D02*
X18072126Y-9352418D01*
D11*
D12*
X16190000Y-5240000D02*
X16510000Y-5560000D01*
X16510000Y-5240000D02*
X16190000Y-5560000D01*
D11*
X12567583Y-15497878D02*
X12567583Y-15297878D01*
X12615202Y-15297878D01*
X12643773Y-15307402D01*
X12662821Y-15326450D01*
X12672344Y-15345497D01*
X12681868Y-15383592D01*
X12681868Y-15412164D01*
X12672344Y-15450259D01*
X12662821Y-15469307D01*
X12643773Y-15488354D01*
X12615202Y-15497878D01*
X12567583Y-15497878D01*
X12767583Y-15497878D02*
X12767583Y-15364545D01*
X12767583Y-15402640D02*
X12777106Y-15383592D01*
X12786630Y-15374069D01*
X12805678Y-15364545D01*
X12824725Y-15364545D01*
X12891392Y-15497878D02*
X12891392Y-15364545D01*
X12891392Y-15297878D02*
X12881868Y-15307402D01*
X12891392Y-15316926D01*
X12900916Y-15307402D01*
X12891392Y-15297878D01*
X12891392Y-15316926D01*
X13015202Y-15497878D02*
X12996154Y-15488354D01*
X12986630Y-15469307D01*
X12986630Y-15297878D01*
X13119964Y-15497878D02*
X13100916Y-15488354D01*
X13091392Y-15469307D01*
X13091392Y-15297878D01*
X13348535Y-15497878D02*
X13348535Y-15297878D01*
X13415202Y-15440735D01*
X13481868Y-15297878D01*
X13481868Y-15497878D01*
X13662821Y-15497878D02*
X13662821Y-15393116D01*
X13653297Y-15374069D01*
X13634249Y-15364545D01*
X13596154Y-15364545D01*
X13577106Y-15374069D01*
X13662821Y-15488354D02*
X13643773Y-15497878D01*
X13596154Y-15497878D01*
X13577106Y-15488354D01*
X13567583Y-15469307D01*
X13567583Y-15450259D01*
X13577106Y-15431212D01*
X13596154Y-15421688D01*
X13643773Y-15421688D01*
X13662821Y-15412164D01*
X13758059Y-15364545D02*
X13758059Y-15564545D01*
X13758059Y-15374069D02*
X13777106Y-15364545D01*
X13815202Y-15364545D01*
X13834249Y-15374069D01*
X13843773Y-15383592D01*
X13853297Y-15402640D01*
X13853297Y-15459783D01*
X13843773Y-15478831D01*
X13834249Y-15488354D01*
X13815202Y-15497878D01*
X13777106Y-15497878D01*
X13758059Y-15488354D01*
X13939011Y-15478831D02*
X13948535Y-15488354D01*
X13939011Y-15497878D01*
X13929487Y-15488354D01*
X13939011Y-15478831D01*
X13939011Y-15497878D01*
X13939011Y-15374069D02*
X13948535Y-15383592D01*
X13939011Y-15393116D01*
X13929487Y-15383592D01*
X13939011Y-15374069D01*
X13939011Y-15393116D01*
X12109964Y-15727402D02*
X12309964Y-15927402D01*
X12309964Y-15727402D02*
X12109964Y-15927402D01*
X12548535Y-15717878D02*
X12672344Y-15717878D01*
X12605678Y-15794069D01*
X12634249Y-15794069D01*
X12653297Y-15803592D01*
X12662821Y-15813116D01*
X12672344Y-15832164D01*
X12672344Y-15879783D01*
X12662821Y-15898831D01*
X12653297Y-15908354D01*
X12634249Y-15917878D01*
X12577106Y-15917878D01*
X12558059Y-15908354D01*
X12548535Y-15898831D01*
X12758059Y-15898831D02*
X12767583Y-15908354D01*
X12758059Y-15917878D01*
X12748535Y-15908354D01*
X12758059Y-15898831D01*
X12758059Y-15917878D01*
X12843773Y-15736926D02*
X12853297Y-15727402D01*
X12872344Y-15717878D01*
X12919964Y-15717878D01*
X12939011Y-15727402D01*
X12948535Y-15736926D01*
X12958059Y-15755973D01*
X12958059Y-15775021D01*
X12948535Y-15803592D01*
X12834249Y-15917878D01*
X12958059Y-15917878D01*
X13081868Y-15717878D02*
X13100916Y-15717878D01*
X13119964Y-15727402D01*
X13129487Y-15736926D01*
X13139011Y-15755973D01*
X13148535Y-15794069D01*
X13148535Y-15841688D01*
X13139011Y-15879783D01*
X13129487Y-15898831D01*
X13119964Y-15908354D01*
X13100916Y-15917878D01*
X13081868Y-15917878D01*
X13062821Y-15908354D01*
X13053297Y-15898831D01*
X13043773Y-15879783D01*
X13034249Y-15841688D01*
X13034249Y-15794069D01*
X13043773Y-15755973D01*
X13053297Y-15736926D01*
X13062821Y-15727402D01*
X13081868Y-15717878D01*
X13272344Y-15717878D02*
X13291392Y-15717878D01*
X13310440Y-15727402D01*
X13319964Y-15736926D01*
X13329487Y-15755973D01*
X13339011Y-15794069D01*
X13339011Y-15841688D01*
X13329487Y-15879783D01*
X13319964Y-15898831D01*
X13310440Y-15908354D01*
X13291392Y-15917878D01*
X13272344Y-15917878D01*
X13253297Y-15908354D01*
X13243773Y-15898831D01*
X13234249Y-15879783D01*
X13224725Y-15841688D01*
X13224725Y-15794069D01*
X13234249Y-15755973D01*
X13243773Y-15736926D01*
X13253297Y-15727402D01*
X13272344Y-15717878D01*
X13424725Y-15917878D02*
X13424725Y-15784545D01*
X13424725Y-15803592D02*
X13434249Y-15794069D01*
X13453297Y-15784545D01*
X13481868Y-15784545D01*
X13500916Y-15794069D01*
X13510440Y-15813116D01*
X13510440Y-15917878D01*
X13510440Y-15813116D02*
X13519964Y-15794069D01*
X13539011Y-15784545D01*
X13567583Y-15784545D01*
X13586630Y-15794069D01*
X13596154Y-15813116D01*
X13596154Y-15917878D01*
X13691392Y-15917878D02*
X13691392Y-15784545D01*
X13691392Y-15803592D02*
X13700916Y-15794069D01*
X13719964Y-15784545D01*
X13748535Y-15784545D01*
X13767583Y-15794069D01*
X13777106Y-15813116D01*
X13777106Y-15917878D01*
X13777106Y-15813116D02*
X13786630Y-15794069D01*
X13805678Y-15784545D01*
X13834249Y-15784545D01*
X13853297Y-15794069D01*
X13862821Y-15813116D01*
X13862821Y-15917878D01*
X14253297Y-15708354D02*
X14081868Y-15965497D01*
X14510440Y-15717878D02*
X14529487Y-15717878D01*
X14548535Y-15727402D01*
X14558059Y-15736926D01*
X14567583Y-15755973D01*
X14577106Y-15794069D01*
X14577106Y-15841688D01*
X14567583Y-15879783D01*
X14558059Y-15898831D01*
X14548535Y-15908354D01*
X14529487Y-15917878D01*
X14510440Y-15917878D01*
X14491392Y-15908354D01*
X14481868Y-15898831D01*
X14472344Y-15879783D01*
X14462821Y-15841688D01*
X14462821Y-15794069D01*
X14472344Y-15755973D01*
X14481868Y-15736926D01*
X14491392Y-15727402D01*
X14510440Y-15717878D01*
X14662821Y-15898831D02*
X14672344Y-15908354D01*
X14662821Y-15917878D01*
X14653297Y-15908354D01*
X14662821Y-15898831D01*
X14662821Y-15917878D01*
X14862821Y-15917878D02*
X14748535Y-15917878D01*
X14805678Y-15917878D02*
X14805678Y-15717878D01*
X14786630Y-15746450D01*
X14767583Y-15765497D01*
X14748535Y-15775021D01*
X14939011Y-15736926D02*
X14948535Y-15727402D01*
X14967583Y-15717878D01*
X15015202Y-15717878D01*
X15034249Y-15727402D01*
X15043773Y-15736926D01*
X15053297Y-15755973D01*
X15053297Y-15775021D01*
X15043773Y-15803592D01*
X14929487Y-15917878D01*
X15053297Y-15917878D01*
X15224725Y-15717878D02*
X15186630Y-15717878D01*
X15167583Y-15727402D01*
X15158059Y-15736926D01*
X15139011Y-15765497D01*
X15129487Y-15803592D01*
X15129487Y-15879783D01*
X15139011Y-15898831D01*
X15148535Y-15908354D01*
X15167583Y-15917878D01*
X15205678Y-15917878D01*
X15224725Y-15908354D01*
X15234249Y-15898831D01*
X15243773Y-15879783D01*
X15243773Y-15832164D01*
X15234249Y-15813116D01*
X15224725Y-15803592D01*
X15205678Y-15794069D01*
X15167583Y-15794069D01*
X15148535Y-15803592D01*
X15139011Y-15813116D01*
X15129487Y-15832164D01*
X15367583Y-15717878D02*
X15386630Y-15717878D01*
X15405678Y-15727402D01*
X15415202Y-15736926D01*
X15424725Y-15755973D01*
X15434249Y-15794069D01*
X15434249Y-15841688D01*
X15424725Y-15879783D01*
X15415202Y-15898831D01*
X15405678Y-15908354D01*
X15386630Y-15917878D01*
X15367583Y-15917878D01*
X15348535Y-15908354D01*
X15339011Y-15898831D01*
X15329487Y-15879783D01*
X15319964Y-15841688D01*
X15319964Y-15794069D01*
X15329487Y-15755973D01*
X15339011Y-15736926D01*
X15348535Y-15727402D01*
X15367583Y-15717878D01*
X15510440Y-15717878D02*
X15510440Y-15755973D01*
X15586630Y-15717878D02*
X15586630Y-15755973D01*
X15881868Y-15994069D02*
X15872344Y-15984545D01*
X15853297Y-15955973D01*
X15843773Y-15936926D01*
X15834249Y-15908354D01*
X15824725Y-15860735D01*
X15824725Y-15822640D01*
X15834249Y-15775021D01*
X15843773Y-15746450D01*
X15853297Y-15727402D01*
X15872344Y-15698831D01*
X15881868Y-15689307D01*
X16062821Y-15917878D02*
X15948535Y-15917878D01*
X16005678Y-15917878D02*
X16005678Y-15717878D01*
X15986630Y-15746450D01*
X15967583Y-15765497D01*
X15948535Y-15775021D01*
X16300916Y-15917878D02*
X16300916Y-15717878D01*
X16386630Y-15917878D02*
X16386630Y-15813116D01*
X16377106Y-15794069D01*
X16358059Y-15784545D01*
X16329487Y-15784545D01*
X16310440Y-15794069D01*
X16300916Y-15803592D01*
X16510440Y-15917878D02*
X16491392Y-15908354D01*
X16481868Y-15898831D01*
X16472344Y-15879783D01*
X16472344Y-15822640D01*
X16481868Y-15803592D01*
X16491392Y-15794069D01*
X16510440Y-15784545D01*
X16539011Y-15784545D01*
X16558059Y-15794069D01*
X16567583Y-15803592D01*
X16577106Y-15822640D01*
X16577106Y-15879783D01*
X16567583Y-15898831D01*
X16558059Y-15908354D01*
X16539011Y-15917878D01*
X16510440Y-15917878D01*
X16691392Y-15917878D02*
X16672344Y-15908354D01*
X16662821Y-15889307D01*
X16662821Y-15717878D01*
X16843773Y-15908354D02*
X16824726Y-15917878D01*
X16786630Y-15917878D01*
X16767583Y-15908354D01*
X16758059Y-15889307D01*
X16758059Y-15813116D01*
X16767583Y-15794069D01*
X16786630Y-15784545D01*
X16824726Y-15784545D01*
X16843773Y-15794069D01*
X16853297Y-15813116D01*
X16853297Y-15832164D01*
X16758059Y-15851212D01*
X16919964Y-15994069D02*
X16929487Y-15984545D01*
X16948535Y-15955973D01*
X16958059Y-15936926D01*
X16967583Y-15908354D01*
X16977106Y-15860735D01*
X16977106Y-15822640D01*
X16967583Y-15775021D01*
X16958059Y-15746450D01*
X16948535Y-15727402D01*
X16929487Y-15698831D01*
X16919964Y-15689307D01*
X17281868Y-15994069D02*
X17272345Y-15984545D01*
X17253297Y-15955973D01*
X17243773Y-15936926D01*
X17234249Y-15908354D01*
X17224726Y-15860735D01*
X17224726Y-15822640D01*
X17234249Y-15775021D01*
X17243773Y-15746450D01*
X17253297Y-15727402D01*
X17272345Y-15698831D01*
X17281868Y-15689307D01*
X17358059Y-15784545D02*
X17358059Y-15917878D01*
X17358059Y-15803592D02*
X17367583Y-15794069D01*
X17386630Y-15784545D01*
X17415202Y-15784545D01*
X17434249Y-15794069D01*
X17443773Y-15813116D01*
X17443773Y-15917878D01*
X17567583Y-15917878D02*
X17548535Y-15908354D01*
X17539011Y-15898831D01*
X17529487Y-15879783D01*
X17529487Y-15822640D01*
X17539011Y-15803592D01*
X17548535Y-15794069D01*
X17567583Y-15784545D01*
X17596154Y-15784545D01*
X17615202Y-15794069D01*
X17624726Y-15803592D01*
X17634249Y-15822640D01*
X17634249Y-15879783D01*
X17624726Y-15898831D01*
X17615202Y-15908354D01*
X17596154Y-15917878D01*
X17567583Y-15917878D01*
X17691392Y-15784545D02*
X17767583Y-15784545D01*
X17719964Y-15717878D02*
X17719964Y-15889307D01*
X17729487Y-15908354D01*
X17748535Y-15917878D01*
X17767583Y-15917878D01*
X17986630Y-15784545D02*
X17986630Y-15984545D01*
X17986630Y-15794069D02*
X18005678Y-15784545D01*
X18043773Y-15784545D01*
X18062821Y-15794069D01*
X18072345Y-15803592D01*
X18081868Y-15822640D01*
X18081868Y-15879783D01*
X18072345Y-15898831D01*
X18062821Y-15908354D01*
X18043773Y-15917878D01*
X18005678Y-15917878D01*
X17986630Y-15908354D01*
X18196154Y-15917878D02*
X18177106Y-15908354D01*
X18167583Y-15889307D01*
X18167583Y-15717878D01*
X18358059Y-15917878D02*
X18358059Y-15813116D01*
X18348535Y-15794069D01*
X18329487Y-15784545D01*
X18291392Y-15784545D01*
X18272345Y-15794069D01*
X18358059Y-15908354D02*
X18339011Y-15917878D01*
X18291392Y-15917878D01*
X18272345Y-15908354D01*
X18262821Y-15889307D01*
X18262821Y-15870259D01*
X18272345Y-15851212D01*
X18291392Y-15841688D01*
X18339011Y-15841688D01*
X18358059Y-15832164D01*
X18424726Y-15784545D02*
X18500916Y-15784545D01*
X18453297Y-15717878D02*
X18453297Y-15889307D01*
X18462821Y-15908354D01*
X18481868Y-15917878D01*
X18500916Y-15917878D01*
X18643773Y-15908354D02*
X18624726Y-15917878D01*
X18586630Y-15917878D01*
X18567583Y-15908354D01*
X18558059Y-15889307D01*
X18558059Y-15813116D01*
X18567583Y-15794069D01*
X18586630Y-15784545D01*
X18624726Y-15784545D01*
X18643773Y-15794069D01*
X18653297Y-15813116D01*
X18653297Y-15832164D01*
X18558059Y-15851212D01*
X18824726Y-15917878D02*
X18824726Y-15717878D01*
X18824726Y-15908354D02*
X18805678Y-15917878D01*
X18767583Y-15917878D01*
X18748535Y-15908354D01*
X18739011Y-15898831D01*
X18729487Y-15879783D01*
X18729487Y-15822640D01*
X18739011Y-15803592D01*
X18748535Y-15794069D01*
X18767583Y-15784545D01*
X18805678Y-15784545D01*
X18824726Y-15794069D01*
X18900916Y-15994069D02*
X18910440Y-15984545D01*
X18929487Y-15955973D01*
X18939011Y-15936926D01*
X18948535Y-15908354D01*
X18958059Y-15860735D01*
X18958059Y-15822640D01*
X18948535Y-15775021D01*
X18939011Y-15746450D01*
X18929487Y-15727402D01*
X18910440Y-15698831D01*
X18900916Y-15689307D01*
M02*
