%TF.GenerationSoftware,KiCad,Pcbnew,(6.0.8)*%
%TF.CreationDate,2022-12-11T00:01:36-05:00*%
%TF.ProjectId,Christmas Ornament 2022,43687269-7374-46d6-9173-204f726e616d,rev?*%
%TF.SameCoordinates,Original*%
%TF.FileFunction,Legend,Bot*%
%TF.FilePolarity,Positive*%
%FSLAX46Y46*%
G04 Gerber Fmt 4.6, Leading zero omitted, Abs format (unit mm)*
G04 Created by KiCad (PCBNEW (6.0.8)) date 2022-12-11 00:01:36*
%MOMM*%
%LPD*%
G01*
G04 APERTURE LIST*
%ADD10C,0.225000*%
G04 APERTURE END LIST*
D10*
X180100000Y-107218571D02*
X179242857Y-107218571D01*
X179671428Y-108718571D02*
X179671428Y-107218571D01*
X178742857Y-108718571D02*
X178742857Y-107218571D01*
X178100000Y-108718571D02*
X178100000Y-107932857D01*
X178171428Y-107790000D01*
X178314285Y-107718571D01*
X178528571Y-107718571D01*
X178671428Y-107790000D01*
X178742857Y-107861428D01*
X176814285Y-108647142D02*
X176957142Y-108718571D01*
X177242857Y-108718571D01*
X177385714Y-108647142D01*
X177457142Y-108504285D01*
X177457142Y-107932857D01*
X177385714Y-107790000D01*
X177242857Y-107718571D01*
X176957142Y-107718571D01*
X176814285Y-107790000D01*
X176742857Y-107932857D01*
X176742857Y-108075714D01*
X177457142Y-108218571D01*
X175171428Y-107718571D02*
X174600000Y-107718571D01*
X174957142Y-108718571D02*
X174957142Y-107432857D01*
X174885714Y-107290000D01*
X174742857Y-107218571D01*
X174600000Y-107218571D01*
X174100000Y-108718571D02*
X174100000Y-107718571D01*
X174100000Y-107218571D02*
X174171428Y-107290000D01*
X174100000Y-107361428D01*
X174028571Y-107290000D01*
X174100000Y-107218571D01*
X174100000Y-107361428D01*
X173385714Y-108718571D02*
X173385714Y-107718571D01*
X173385714Y-108004285D02*
X173314285Y-107861428D01*
X173242857Y-107790000D01*
X173100000Y-107718571D01*
X172957142Y-107718571D01*
X172528571Y-108647142D02*
X172385714Y-108718571D01*
X172100000Y-108718571D01*
X171957142Y-108647142D01*
X171885714Y-108504285D01*
X171885714Y-108432857D01*
X171957142Y-108290000D01*
X172100000Y-108218571D01*
X172314285Y-108218571D01*
X172457142Y-108147142D01*
X172528571Y-108004285D01*
X172528571Y-107932857D01*
X172457142Y-107790000D01*
X172314285Y-107718571D01*
X172100000Y-107718571D01*
X171957142Y-107790000D01*
X171457142Y-107718571D02*
X170885714Y-107718571D01*
X171242857Y-107218571D02*
X171242857Y-108504285D01*
X171171428Y-108647142D01*
X171028571Y-108718571D01*
X170885714Y-108718571D01*
X168671428Y-108647142D02*
X168814285Y-108718571D01*
X169100000Y-108718571D01*
X169242857Y-108647142D01*
X169314285Y-108504285D01*
X169314285Y-107932857D01*
X169242857Y-107790000D01*
X169100000Y-107718571D01*
X168814285Y-107718571D01*
X168671428Y-107790000D01*
X168600000Y-107932857D01*
X168600000Y-108075714D01*
X169314285Y-108218571D01*
X168100000Y-107718571D02*
X167742857Y-108718571D01*
X167385714Y-107718571D01*
X166242857Y-108647142D02*
X166385714Y-108718571D01*
X166671428Y-108718571D01*
X166814285Y-108647142D01*
X166885714Y-108504285D01*
X166885714Y-107932857D01*
X166814285Y-107790000D01*
X166671428Y-107718571D01*
X166385714Y-107718571D01*
X166242857Y-107790000D01*
X166171428Y-107932857D01*
X166171428Y-108075714D01*
X166885714Y-108218571D01*
X165528571Y-108718571D02*
X165528571Y-107718571D01*
X165528571Y-108004285D02*
X165457142Y-107861428D01*
X165385714Y-107790000D01*
X165242857Y-107718571D01*
X165100000Y-107718571D01*
X162814285Y-108718571D02*
X162814285Y-107218571D01*
X162814285Y-108647142D02*
X162957142Y-108718571D01*
X163242857Y-108718571D01*
X163385714Y-108647142D01*
X163457142Y-108575714D01*
X163528571Y-108432857D01*
X163528571Y-108004285D01*
X163457142Y-107861428D01*
X163385714Y-107790000D01*
X163242857Y-107718571D01*
X162957142Y-107718571D01*
X162814285Y-107790000D01*
X161457142Y-107718571D02*
X161457142Y-108718571D01*
X162100000Y-107718571D02*
X162100000Y-108504285D01*
X162028571Y-108647142D01*
X161885714Y-108718571D01*
X161671428Y-108718571D01*
X161528571Y-108647142D01*
X161457142Y-108575714D01*
X160100000Y-108718571D02*
X160100000Y-107932857D01*
X160171428Y-107790000D01*
X160314285Y-107718571D01*
X160600000Y-107718571D01*
X160742857Y-107790000D01*
X160100000Y-108647142D02*
X160242857Y-108718571D01*
X160600000Y-108718571D01*
X160742857Y-108647142D01*
X160814285Y-108504285D01*
X160814285Y-108361428D01*
X160742857Y-108218571D01*
X160600000Y-108147142D01*
X160242857Y-108147142D01*
X160100000Y-108075714D01*
X159171428Y-108718571D02*
X159314285Y-108647142D01*
X159385714Y-108504285D01*
X159385714Y-107218571D01*
X156814285Y-108647142D02*
X156957142Y-108718571D01*
X157242857Y-108718571D01*
X157385714Y-108647142D01*
X157457142Y-108575714D01*
X157528571Y-108432857D01*
X157528571Y-108004285D01*
X157457142Y-107861428D01*
X157385714Y-107790000D01*
X157242857Y-107718571D01*
X156957142Y-107718571D01*
X156814285Y-107790000D01*
X155957142Y-108718571D02*
X156100000Y-108647142D01*
X156171428Y-108575714D01*
X156242857Y-108432857D01*
X156242857Y-108004285D01*
X156171428Y-107861428D01*
X156100000Y-107790000D01*
X155957142Y-107718571D01*
X155742857Y-107718571D01*
X155600000Y-107790000D01*
X155528571Y-107861428D01*
X155457142Y-108004285D01*
X155457142Y-108432857D01*
X155528571Y-108575714D01*
X155600000Y-108647142D01*
X155742857Y-108718571D01*
X155957142Y-108718571D01*
X154814285Y-108718571D02*
X154814285Y-107718571D01*
X154814285Y-108004285D02*
X154742857Y-107861428D01*
X154671428Y-107790000D01*
X154528571Y-107718571D01*
X154385714Y-107718571D01*
X153314285Y-108647142D02*
X153457142Y-108718571D01*
X153742857Y-108718571D01*
X153885714Y-108647142D01*
X153957142Y-108504285D01*
X153957142Y-107932857D01*
X153885714Y-107790000D01*
X153742857Y-107718571D01*
X153457142Y-107718571D01*
X153314285Y-107790000D01*
X153242857Y-107932857D01*
X153242857Y-108075714D01*
X153957142Y-108218571D01*
X184100000Y-110990714D02*
X184171428Y-111062142D01*
X184385714Y-111133571D01*
X184528571Y-111133571D01*
X184742857Y-111062142D01*
X184885714Y-110919285D01*
X184957142Y-110776428D01*
X185028571Y-110490714D01*
X185028571Y-110276428D01*
X184957142Y-109990714D01*
X184885714Y-109847857D01*
X184742857Y-109705000D01*
X184528571Y-109633571D01*
X184385714Y-109633571D01*
X184171428Y-109705000D01*
X184100000Y-109776428D01*
X183457142Y-111133571D02*
X183457142Y-109633571D01*
X182814285Y-111133571D02*
X182814285Y-110347857D01*
X182885714Y-110205000D01*
X183028571Y-110133571D01*
X183242857Y-110133571D01*
X183385714Y-110205000D01*
X183457142Y-110276428D01*
X182100000Y-111133571D02*
X182100000Y-110133571D01*
X182100000Y-110419285D02*
X182028571Y-110276428D01*
X181957142Y-110205000D01*
X181814285Y-110133571D01*
X181671428Y-110133571D01*
X181171428Y-111133571D02*
X181171428Y-110133571D01*
X181171428Y-109633571D02*
X181242857Y-109705000D01*
X181171428Y-109776428D01*
X181100000Y-109705000D01*
X181171428Y-109633571D01*
X181171428Y-109776428D01*
X180528571Y-111062142D02*
X180385714Y-111133571D01*
X180100000Y-111133571D01*
X179957142Y-111062142D01*
X179885714Y-110919285D01*
X179885714Y-110847857D01*
X179957142Y-110705000D01*
X180100000Y-110633571D01*
X180314285Y-110633571D01*
X180457142Y-110562142D01*
X180528571Y-110419285D01*
X180528571Y-110347857D01*
X180457142Y-110205000D01*
X180314285Y-110133571D01*
X180100000Y-110133571D01*
X179957142Y-110205000D01*
X179457142Y-110133571D02*
X178885714Y-110133571D01*
X179242857Y-109633571D02*
X179242857Y-110919285D01*
X179171428Y-111062142D01*
X179028571Y-111133571D01*
X178885714Y-111133571D01*
X178385714Y-111133571D02*
X178385714Y-110133571D01*
X178385714Y-110276428D02*
X178314285Y-110205000D01*
X178171428Y-110133571D01*
X177957142Y-110133571D01*
X177814285Y-110205000D01*
X177742857Y-110347857D01*
X177742857Y-111133571D01*
X177742857Y-110347857D02*
X177671428Y-110205000D01*
X177528571Y-110133571D01*
X177314285Y-110133571D01*
X177171428Y-110205000D01*
X177100000Y-110347857D01*
X177100000Y-111133571D01*
X175742857Y-111133571D02*
X175742857Y-110347857D01*
X175814285Y-110205000D01*
X175957142Y-110133571D01*
X176242857Y-110133571D01*
X176385714Y-110205000D01*
X175742857Y-111062142D02*
X175885714Y-111133571D01*
X176242857Y-111133571D01*
X176385714Y-111062142D01*
X176457142Y-110919285D01*
X176457142Y-110776428D01*
X176385714Y-110633571D01*
X176242857Y-110562142D01*
X175885714Y-110562142D01*
X175742857Y-110490714D01*
X175100000Y-111062142D02*
X174957142Y-111133571D01*
X174671428Y-111133571D01*
X174528571Y-111062142D01*
X174457142Y-110919285D01*
X174457142Y-110847857D01*
X174528571Y-110705000D01*
X174671428Y-110633571D01*
X174885714Y-110633571D01*
X175028571Y-110562142D01*
X175100000Y-110419285D01*
X175100000Y-110347857D01*
X175028571Y-110205000D01*
X174885714Y-110133571D01*
X174671428Y-110133571D01*
X174528571Y-110205000D01*
X172457142Y-111133571D02*
X172600000Y-111062142D01*
X172671428Y-110990714D01*
X172742857Y-110847857D01*
X172742857Y-110419285D01*
X172671428Y-110276428D01*
X172600000Y-110205000D01*
X172457142Y-110133571D01*
X172242857Y-110133571D01*
X172100000Y-110205000D01*
X172028571Y-110276428D01*
X171957142Y-110419285D01*
X171957142Y-110847857D01*
X172028571Y-110990714D01*
X172100000Y-111062142D01*
X172242857Y-111133571D01*
X172457142Y-111133571D01*
X171314285Y-111133571D02*
X171314285Y-110133571D01*
X171314285Y-110419285D02*
X171242857Y-110276428D01*
X171171428Y-110205000D01*
X171028571Y-110133571D01*
X170885714Y-110133571D01*
X170385714Y-110133571D02*
X170385714Y-111133571D01*
X170385714Y-110276428D02*
X170314285Y-110205000D01*
X170171428Y-110133571D01*
X169957142Y-110133571D01*
X169814285Y-110205000D01*
X169742857Y-110347857D01*
X169742857Y-111133571D01*
X168385714Y-111133571D02*
X168385714Y-110347857D01*
X168457142Y-110205000D01*
X168600000Y-110133571D01*
X168885714Y-110133571D01*
X169028571Y-110205000D01*
X168385714Y-111062142D02*
X168528571Y-111133571D01*
X168885714Y-111133571D01*
X169028571Y-111062142D01*
X169100000Y-110919285D01*
X169100000Y-110776428D01*
X169028571Y-110633571D01*
X168885714Y-110562142D01*
X168528571Y-110562142D01*
X168385714Y-110490714D01*
X167671428Y-111133571D02*
X167671428Y-110133571D01*
X167671428Y-110276428D02*
X167600000Y-110205000D01*
X167457142Y-110133571D01*
X167242857Y-110133571D01*
X167100000Y-110205000D01*
X167028571Y-110347857D01*
X167028571Y-111133571D01*
X167028571Y-110347857D02*
X166957142Y-110205000D01*
X166814285Y-110133571D01*
X166600000Y-110133571D01*
X166457142Y-110205000D01*
X166385714Y-110347857D01*
X166385714Y-111133571D01*
X165100000Y-111062142D02*
X165242857Y-111133571D01*
X165528571Y-111133571D01*
X165671428Y-111062142D01*
X165742857Y-110919285D01*
X165742857Y-110347857D01*
X165671428Y-110205000D01*
X165528571Y-110133571D01*
X165242857Y-110133571D01*
X165100000Y-110205000D01*
X165028571Y-110347857D01*
X165028571Y-110490714D01*
X165742857Y-110633571D01*
X164385714Y-110133571D02*
X164385714Y-111133571D01*
X164385714Y-110276428D02*
X164314285Y-110205000D01*
X164171428Y-110133571D01*
X163957142Y-110133571D01*
X163814285Y-110205000D01*
X163742857Y-110347857D01*
X163742857Y-111133571D01*
X163242857Y-110133571D02*
X162671428Y-110133571D01*
X163028571Y-109633571D02*
X163028571Y-110919285D01*
X162957142Y-111062142D01*
X162814285Y-111133571D01*
X162671428Y-111133571D01*
X161242857Y-110133571D02*
X160671428Y-110133571D01*
X161028571Y-109633571D02*
X161028571Y-110919285D01*
X160957142Y-111062142D01*
X160814285Y-111133571D01*
X160671428Y-111133571D01*
X159600000Y-111062142D02*
X159742857Y-111133571D01*
X160028571Y-111133571D01*
X160171428Y-111062142D01*
X160242857Y-110919285D01*
X160242857Y-110347857D01*
X160171428Y-110205000D01*
X160028571Y-110133571D01*
X159742857Y-110133571D01*
X159600000Y-110205000D01*
X159528571Y-110347857D01*
X159528571Y-110490714D01*
X160242857Y-110633571D01*
X158885714Y-111133571D02*
X158885714Y-110133571D01*
X158885714Y-110276428D02*
X158814285Y-110205000D01*
X158671428Y-110133571D01*
X158457142Y-110133571D01*
X158314285Y-110205000D01*
X158242857Y-110347857D01*
X158242857Y-111133571D01*
X158242857Y-110347857D02*
X158171428Y-110205000D01*
X158028571Y-110133571D01*
X157814285Y-110133571D01*
X157671428Y-110205000D01*
X157600000Y-110347857D01*
X157600000Y-111133571D01*
X156885714Y-110133571D02*
X156885714Y-111633571D01*
X156885714Y-110205000D02*
X156742857Y-110133571D01*
X156457142Y-110133571D01*
X156314285Y-110205000D01*
X156242857Y-110276428D01*
X156171428Y-110419285D01*
X156171428Y-110847857D01*
X156242857Y-110990714D01*
X156314285Y-111062142D01*
X156457142Y-111133571D01*
X156742857Y-111133571D01*
X156885714Y-111062142D01*
X154957142Y-111062142D02*
X155100000Y-111133571D01*
X155385714Y-111133571D01*
X155528571Y-111062142D01*
X155600000Y-110919285D01*
X155600000Y-110347857D01*
X155528571Y-110205000D01*
X155385714Y-110133571D01*
X155100000Y-110133571D01*
X154957142Y-110205000D01*
X154885714Y-110347857D01*
X154885714Y-110490714D01*
X155600000Y-110633571D01*
X154242857Y-111133571D02*
X154242857Y-110133571D01*
X154242857Y-110419285D02*
X154171428Y-110276428D01*
X154100000Y-110205000D01*
X153957142Y-110133571D01*
X153814285Y-110133571D01*
X152671428Y-111133571D02*
X152671428Y-110347857D01*
X152742857Y-110205000D01*
X152885714Y-110133571D01*
X153171428Y-110133571D01*
X153314285Y-110205000D01*
X152671428Y-111062142D02*
X152814285Y-111133571D01*
X153171428Y-111133571D01*
X153314285Y-111062142D01*
X153385714Y-110919285D01*
X153385714Y-110776428D01*
X153314285Y-110633571D01*
X153171428Y-110562142D01*
X152814285Y-110562142D01*
X152671428Y-110490714D01*
X152171428Y-110133571D02*
X151600000Y-110133571D01*
X151957142Y-109633571D02*
X151957142Y-110919285D01*
X151885714Y-111062142D01*
X151742857Y-111133571D01*
X151600000Y-111133571D01*
X150457142Y-110133571D02*
X150457142Y-111133571D01*
X151100000Y-110133571D02*
X151100000Y-110919285D01*
X151028571Y-111062142D01*
X150885714Y-111133571D01*
X150671428Y-111133571D01*
X150528571Y-111062142D01*
X150457142Y-110990714D01*
X149742857Y-111133571D02*
X149742857Y-110133571D01*
X149742857Y-110419285D02*
X149671428Y-110276428D01*
X149600000Y-110205000D01*
X149457142Y-110133571D01*
X149314285Y-110133571D01*
X148242857Y-111062142D02*
X148385714Y-111133571D01*
X148671428Y-111133571D01*
X148814285Y-111062142D01*
X148885714Y-110919285D01*
X148885714Y-110347857D01*
X148814285Y-110205000D01*
X148671428Y-110133571D01*
X148385714Y-110133571D01*
X148242857Y-110205000D01*
X148171428Y-110347857D01*
X148171428Y-110490714D01*
X148885714Y-110633571D01*
X184850000Y-113477142D02*
X184707142Y-113548571D01*
X184421428Y-113548571D01*
X184278571Y-113477142D01*
X184207142Y-113334285D01*
X184207142Y-113262857D01*
X184278571Y-113120000D01*
X184421428Y-113048571D01*
X184635714Y-113048571D01*
X184778571Y-112977142D01*
X184850000Y-112834285D01*
X184850000Y-112762857D01*
X184778571Y-112620000D01*
X184635714Y-112548571D01*
X184421428Y-112548571D01*
X184278571Y-112620000D01*
X182992857Y-113477142D02*
X183135714Y-113548571D01*
X183421428Y-113548571D01*
X183564285Y-113477142D01*
X183635714Y-113334285D01*
X183635714Y-112762857D01*
X183564285Y-112620000D01*
X183421428Y-112548571D01*
X183135714Y-112548571D01*
X182992857Y-112620000D01*
X182921428Y-112762857D01*
X182921428Y-112905714D01*
X183635714Y-113048571D01*
X182278571Y-112548571D02*
X182278571Y-113548571D01*
X182278571Y-112691428D02*
X182207142Y-112620000D01*
X182064285Y-112548571D01*
X181850000Y-112548571D01*
X181707142Y-112620000D01*
X181635714Y-112762857D01*
X181635714Y-113548571D01*
X180992857Y-113477142D02*
X180850000Y-113548571D01*
X180564285Y-113548571D01*
X180421428Y-113477142D01*
X180350000Y-113334285D01*
X180350000Y-113262857D01*
X180421428Y-113120000D01*
X180564285Y-113048571D01*
X180778571Y-113048571D01*
X180921428Y-112977142D01*
X180992857Y-112834285D01*
X180992857Y-112762857D01*
X180921428Y-112620000D01*
X180778571Y-112548571D01*
X180564285Y-112548571D01*
X180421428Y-112620000D01*
X179492857Y-113548571D02*
X179635714Y-113477142D01*
X179707142Y-113405714D01*
X179778571Y-113262857D01*
X179778571Y-112834285D01*
X179707142Y-112691428D01*
X179635714Y-112620000D01*
X179492857Y-112548571D01*
X179278571Y-112548571D01*
X179135714Y-112620000D01*
X179064285Y-112691428D01*
X178992857Y-112834285D01*
X178992857Y-113262857D01*
X179064285Y-113405714D01*
X179135714Y-113477142D01*
X179278571Y-113548571D01*
X179492857Y-113548571D01*
X178350000Y-113548571D02*
X178350000Y-112548571D01*
X178350000Y-112834285D02*
X178278571Y-112691428D01*
X178207142Y-112620000D01*
X178064285Y-112548571D01*
X177921428Y-112548571D01*
X176492857Y-112548571D02*
X175921428Y-112548571D01*
X176278571Y-112048571D02*
X176278571Y-113334285D01*
X176207142Y-113477142D01*
X176064285Y-113548571D01*
X175921428Y-113548571D01*
X175207142Y-113548571D02*
X175350000Y-113477142D01*
X175421428Y-113405714D01*
X175492857Y-113262857D01*
X175492857Y-112834285D01*
X175421428Y-112691428D01*
X175350000Y-112620000D01*
X175207142Y-112548571D01*
X174992857Y-112548571D01*
X174850000Y-112620000D01*
X174778571Y-112691428D01*
X174707142Y-112834285D01*
X174707142Y-113262857D01*
X174778571Y-113405714D01*
X174850000Y-113477142D01*
X174992857Y-113548571D01*
X175207142Y-113548571D01*
X172350000Y-113477142D02*
X172492857Y-113548571D01*
X172778571Y-113548571D01*
X172921428Y-113477142D01*
X172992857Y-113334285D01*
X172992857Y-112762857D01*
X172921428Y-112620000D01*
X172778571Y-112548571D01*
X172492857Y-112548571D01*
X172350000Y-112620000D01*
X172278571Y-112762857D01*
X172278571Y-112905714D01*
X172992857Y-113048571D01*
X171778571Y-112548571D02*
X171421428Y-113548571D01*
X171064285Y-112548571D01*
X169921428Y-113477142D02*
X170064285Y-113548571D01*
X170350000Y-113548571D01*
X170492857Y-113477142D01*
X170564285Y-113334285D01*
X170564285Y-112762857D01*
X170492857Y-112620000D01*
X170350000Y-112548571D01*
X170064285Y-112548571D01*
X169921428Y-112620000D01*
X169850000Y-112762857D01*
X169850000Y-112905714D01*
X170564285Y-113048571D01*
X169207142Y-113548571D02*
X169207142Y-112548571D01*
X169207142Y-112834285D02*
X169135714Y-112691428D01*
X169064285Y-112620000D01*
X168921428Y-112548571D01*
X168778571Y-112548571D01*
X166564285Y-113477142D02*
X166707142Y-113548571D01*
X166992857Y-113548571D01*
X167135714Y-113477142D01*
X167207142Y-113334285D01*
X167207142Y-112762857D01*
X167135714Y-112620000D01*
X166992857Y-112548571D01*
X166707142Y-112548571D01*
X166564285Y-112620000D01*
X166492857Y-112762857D01*
X166492857Y-112905714D01*
X167207142Y-113048571D01*
X165992857Y-113548571D02*
X165207142Y-112548571D01*
X165992857Y-112548571D02*
X165207142Y-113548571D01*
X164635714Y-113548571D02*
X164635714Y-112548571D01*
X164635714Y-112048571D02*
X164707142Y-112120000D01*
X164635714Y-112191428D01*
X164564285Y-112120000D01*
X164635714Y-112048571D01*
X164635714Y-112191428D01*
X163992857Y-113477142D02*
X163850000Y-113548571D01*
X163564285Y-113548571D01*
X163421428Y-113477142D01*
X163350000Y-113334285D01*
X163350000Y-113262857D01*
X163421428Y-113120000D01*
X163564285Y-113048571D01*
X163778571Y-113048571D01*
X163921428Y-112977142D01*
X163992857Y-112834285D01*
X163992857Y-112762857D01*
X163921428Y-112620000D01*
X163778571Y-112548571D01*
X163564285Y-112548571D01*
X163421428Y-112620000D01*
X162921428Y-112548571D02*
X162350000Y-112548571D01*
X162707142Y-112048571D02*
X162707142Y-113334285D01*
X162635714Y-113477142D01*
X162492857Y-113548571D01*
X162350000Y-113548571D01*
X160278571Y-114120000D02*
X160350000Y-114048571D01*
X160492857Y-113834285D01*
X160564285Y-113691428D01*
X160635714Y-113477142D01*
X160707142Y-113120000D01*
X160707142Y-112834285D01*
X160635714Y-112477142D01*
X160564285Y-112262857D01*
X160492857Y-112120000D01*
X160350000Y-111905714D01*
X160278571Y-111834285D01*
X159064285Y-112548571D02*
X159064285Y-113548571D01*
X159707142Y-112548571D02*
X159707142Y-113334285D01*
X159635714Y-113477142D01*
X159492857Y-113548571D01*
X159278571Y-113548571D01*
X159135714Y-113477142D01*
X159064285Y-113405714D01*
X158350000Y-112548571D02*
X158350000Y-113548571D01*
X158350000Y-112691428D02*
X158278571Y-112620000D01*
X158135714Y-112548571D01*
X157921428Y-112548571D01*
X157778571Y-112620000D01*
X157707142Y-112762857D01*
X157707142Y-113548571D01*
X157135714Y-112548571D02*
X156778571Y-113548571D01*
X156421428Y-112548571D01*
X155278571Y-113477142D02*
X155421428Y-113548571D01*
X155707142Y-113548571D01*
X155850000Y-113477142D01*
X155921428Y-113334285D01*
X155921428Y-112762857D01*
X155850000Y-112620000D01*
X155707142Y-112548571D01*
X155421428Y-112548571D01*
X155278571Y-112620000D01*
X155207142Y-112762857D01*
X155207142Y-112905714D01*
X155921428Y-113048571D01*
X154564285Y-113548571D02*
X154564285Y-112548571D01*
X154564285Y-112834285D02*
X154492857Y-112691428D01*
X154421428Y-112620000D01*
X154278571Y-112548571D01*
X154135714Y-112548571D01*
X153635714Y-113548571D02*
X153635714Y-112548571D01*
X153635714Y-112048571D02*
X153707142Y-112120000D01*
X153635714Y-112191428D01*
X153564285Y-112120000D01*
X153635714Y-112048571D01*
X153635714Y-112191428D01*
X153135714Y-112548571D02*
X152564285Y-112548571D01*
X152921428Y-113548571D02*
X152921428Y-112262857D01*
X152850000Y-112120000D01*
X152707142Y-112048571D01*
X152564285Y-112048571D01*
X152064285Y-113548571D02*
X152064285Y-112548571D01*
X152064285Y-112048571D02*
X152135714Y-112120000D01*
X152064285Y-112191428D01*
X151992857Y-112120000D01*
X152064285Y-112048571D01*
X152064285Y-112191428D01*
X150778571Y-113477142D02*
X150921428Y-113548571D01*
X151207142Y-113548571D01*
X151350000Y-113477142D01*
X151421428Y-113334285D01*
X151421428Y-112762857D01*
X151350000Y-112620000D01*
X151207142Y-112548571D01*
X150921428Y-112548571D01*
X150778571Y-112620000D01*
X150707142Y-112762857D01*
X150707142Y-112905714D01*
X151421428Y-113048571D01*
X149421428Y-113548571D02*
X149421428Y-112048571D01*
X149421428Y-113477142D02*
X149564285Y-113548571D01*
X149850000Y-113548571D01*
X149992857Y-113477142D01*
X150064285Y-113405714D01*
X150135714Y-113262857D01*
X150135714Y-112834285D01*
X150064285Y-112691428D01*
X149992857Y-112620000D01*
X149850000Y-112548571D01*
X149564285Y-112548571D01*
X149421428Y-112620000D01*
X148850000Y-114120000D02*
X148778571Y-114048571D01*
X148635714Y-113834285D01*
X148564285Y-113691428D01*
X148492857Y-113477142D01*
X148421428Y-113120000D01*
X148421428Y-112834285D01*
X148492857Y-112477142D01*
X148564285Y-112262857D01*
X148635714Y-112120000D01*
X148778571Y-111905714D01*
X148850000Y-111834285D01*
X188421428Y-114463571D02*
X188421428Y-115677857D01*
X188350000Y-115820714D01*
X188278571Y-115892142D01*
X188135714Y-115963571D01*
X187850000Y-115963571D01*
X187707142Y-115892142D01*
X187635714Y-115820714D01*
X187564285Y-115677857D01*
X187564285Y-114463571D01*
X187064285Y-114963571D02*
X186492857Y-114963571D01*
X186850000Y-114463571D02*
X186850000Y-115749285D01*
X186778571Y-115892142D01*
X186635714Y-115963571D01*
X186492857Y-115963571D01*
X185992857Y-115963571D02*
X185992857Y-114963571D01*
X185992857Y-114463571D02*
X186064285Y-114535000D01*
X185992857Y-114606428D01*
X185921428Y-114535000D01*
X185992857Y-114463571D01*
X185992857Y-114606428D01*
X185064285Y-115963571D02*
X185207142Y-115892142D01*
X185278571Y-115749285D01*
X185278571Y-114463571D01*
X184492857Y-115963571D02*
X184492857Y-114963571D01*
X184492857Y-114463571D02*
X184564285Y-114535000D01*
X184492857Y-114606428D01*
X184421428Y-114535000D01*
X184492857Y-114463571D01*
X184492857Y-114606428D01*
X183921428Y-114963571D02*
X183135714Y-114963571D01*
X183921428Y-115963571D01*
X183135714Y-115963571D01*
X182564285Y-115963571D02*
X182564285Y-114963571D01*
X182564285Y-114463571D02*
X182635714Y-114535000D01*
X182564285Y-114606428D01*
X182492857Y-114535000D01*
X182564285Y-114463571D01*
X182564285Y-114606428D01*
X181850000Y-114963571D02*
X181850000Y-115963571D01*
X181850000Y-115106428D02*
X181778571Y-115035000D01*
X181635714Y-114963571D01*
X181421428Y-114963571D01*
X181278571Y-115035000D01*
X181207142Y-115177857D01*
X181207142Y-115963571D01*
X179850000Y-114963571D02*
X179850000Y-116177857D01*
X179921428Y-116320714D01*
X179992857Y-116392142D01*
X180135714Y-116463571D01*
X180350000Y-116463571D01*
X180492857Y-116392142D01*
X179850000Y-115892142D02*
X179992857Y-115963571D01*
X180278571Y-115963571D01*
X180421428Y-115892142D01*
X180492857Y-115820714D01*
X180564285Y-115677857D01*
X180564285Y-115249285D01*
X180492857Y-115106428D01*
X180421428Y-115035000D01*
X180278571Y-114963571D01*
X179992857Y-114963571D01*
X179850000Y-115035000D01*
X178207142Y-114963571D02*
X177635714Y-114963571D01*
X177992857Y-114463571D02*
X177992857Y-115749285D01*
X177921428Y-115892142D01*
X177778571Y-115963571D01*
X177635714Y-115963571D01*
X177135714Y-115963571D02*
X177135714Y-114463571D01*
X176492857Y-115963571D02*
X176492857Y-115177857D01*
X176564285Y-115035000D01*
X176707142Y-114963571D01*
X176921428Y-114963571D01*
X177064285Y-115035000D01*
X177135714Y-115106428D01*
X175207142Y-115892142D02*
X175350000Y-115963571D01*
X175635714Y-115963571D01*
X175778571Y-115892142D01*
X175850000Y-115749285D01*
X175850000Y-115177857D01*
X175778571Y-115035000D01*
X175635714Y-114963571D01*
X175350000Y-114963571D01*
X175207142Y-115035000D01*
X175135714Y-115177857D01*
X175135714Y-115320714D01*
X175850000Y-115463571D01*
X173350000Y-115963571D02*
X173350000Y-114463571D01*
X172992857Y-114463571D01*
X172778571Y-114535000D01*
X172635714Y-114677857D01*
X172564285Y-114820714D01*
X172492857Y-115106428D01*
X172492857Y-115320714D01*
X172564285Y-115606428D01*
X172635714Y-115749285D01*
X172778571Y-115892142D01*
X172992857Y-115963571D01*
X173350000Y-115963571D01*
X171207142Y-114963571D02*
X171207142Y-115963571D01*
X171850000Y-114963571D02*
X171850000Y-115749285D01*
X171778571Y-115892142D01*
X171635714Y-115963571D01*
X171421428Y-115963571D01*
X171278571Y-115892142D01*
X171207142Y-115820714D01*
X169850000Y-115963571D02*
X169850000Y-115177857D01*
X169921428Y-115035000D01*
X170064285Y-114963571D01*
X170350000Y-114963571D01*
X170492857Y-115035000D01*
X169850000Y-115892142D02*
X169992857Y-115963571D01*
X170350000Y-115963571D01*
X170492857Y-115892142D01*
X170564285Y-115749285D01*
X170564285Y-115606428D01*
X170492857Y-115463571D01*
X170350000Y-115392142D01*
X169992857Y-115392142D01*
X169850000Y-115320714D01*
X168921428Y-115963571D02*
X169064285Y-115892142D01*
X169135714Y-115749285D01*
X169135714Y-114463571D01*
X166350000Y-115820714D02*
X166421428Y-115892142D01*
X166635714Y-115963571D01*
X166778571Y-115963571D01*
X166992857Y-115892142D01*
X167135714Y-115749285D01*
X167207142Y-115606428D01*
X167278571Y-115320714D01*
X167278571Y-115106428D01*
X167207142Y-114820714D01*
X167135714Y-114677857D01*
X166992857Y-114535000D01*
X166778571Y-114463571D01*
X166635714Y-114463571D01*
X166421428Y-114535000D01*
X166350000Y-114606428D01*
X165492857Y-115963571D02*
X165635714Y-115892142D01*
X165707142Y-115820714D01*
X165778571Y-115677857D01*
X165778571Y-115249285D01*
X165707142Y-115106428D01*
X165635714Y-115035000D01*
X165492857Y-114963571D01*
X165278571Y-114963571D01*
X165135714Y-115035000D01*
X165064285Y-115106428D01*
X164992857Y-115249285D01*
X164992857Y-115677857D01*
X165064285Y-115820714D01*
X165135714Y-115892142D01*
X165278571Y-115963571D01*
X165492857Y-115963571D01*
X164350000Y-115963571D02*
X164350000Y-114963571D01*
X164350000Y-115249285D02*
X164278571Y-115106428D01*
X164207142Y-115035000D01*
X164064285Y-114963571D01*
X163921428Y-114963571D01*
X163635714Y-114963571D02*
X163064285Y-114963571D01*
X163421428Y-114463571D02*
X163421428Y-115749285D01*
X163350000Y-115892142D01*
X163207142Y-115963571D01*
X163064285Y-115963571D01*
X161992857Y-115892142D02*
X162135714Y-115963571D01*
X162421428Y-115963571D01*
X162564285Y-115892142D01*
X162635714Y-115749285D01*
X162635714Y-115177857D01*
X162564285Y-115035000D01*
X162421428Y-114963571D01*
X162135714Y-114963571D01*
X161992857Y-115035000D01*
X161921428Y-115177857D01*
X161921428Y-115320714D01*
X162635714Y-115463571D01*
X161421428Y-115963571D02*
X160635714Y-114963571D01*
X161421428Y-114963571D02*
X160635714Y-115963571D01*
X158921428Y-115963571D02*
X158921428Y-114463571D01*
X158421428Y-115535000D01*
X157921428Y-114463571D01*
X157921428Y-115963571D01*
X156921428Y-114463571D02*
X156778571Y-114463571D01*
X156635714Y-114535000D01*
X156564285Y-114606428D01*
X156492857Y-114749285D01*
X156421428Y-115035000D01*
X156421428Y-115392142D01*
X156492857Y-115677857D01*
X156564285Y-115820714D01*
X156635714Y-115892142D01*
X156778571Y-115963571D01*
X156921428Y-115963571D01*
X157064285Y-115892142D01*
X157135714Y-115820714D01*
X157207142Y-115677857D01*
X157278571Y-115392142D01*
X157278571Y-115035000D01*
X157207142Y-114749285D01*
X157135714Y-114606428D01*
X157064285Y-114535000D01*
X156921428Y-114463571D01*
X155778571Y-115392142D02*
X154635714Y-115392142D01*
X155207142Y-115963571D02*
X155207142Y-114820714D01*
X151921428Y-115963571D02*
X152421428Y-115249285D01*
X152778571Y-115963571D02*
X152778571Y-114463571D01*
X152207142Y-114463571D01*
X152064285Y-114535000D01*
X151992857Y-114606428D01*
X151921428Y-114749285D01*
X151921428Y-114963571D01*
X151992857Y-115106428D01*
X152064285Y-115177857D01*
X152207142Y-115249285D01*
X152778571Y-115249285D01*
X151278571Y-115963571D02*
X151278571Y-114463571D01*
X150707142Y-114463571D01*
X150564285Y-114535000D01*
X150492857Y-114606428D01*
X150421428Y-114749285D01*
X150421428Y-114963571D01*
X150492857Y-115106428D01*
X150564285Y-115177857D01*
X150707142Y-115249285D01*
X151278571Y-115249285D01*
X149849999Y-114606428D02*
X149778571Y-114535000D01*
X149635714Y-114463571D01*
X149278571Y-114463571D01*
X149135714Y-114535000D01*
X149064285Y-114606428D01*
X148992857Y-114749285D01*
X148992857Y-114892142D01*
X149064285Y-115106428D01*
X149921428Y-115963571D01*
X148992857Y-115963571D01*
X148064285Y-114463571D02*
X147921428Y-114463571D01*
X147778571Y-114535000D01*
X147707142Y-114606428D01*
X147635714Y-114749285D01*
X147564285Y-115035000D01*
X147564285Y-115392142D01*
X147635714Y-115677857D01*
X147707142Y-115820714D01*
X147778571Y-115892142D01*
X147921428Y-115963571D01*
X148064285Y-115963571D01*
X148207142Y-115892142D01*
X148278571Y-115820714D01*
X148349999Y-115677857D01*
X148421428Y-115392142D01*
X148421428Y-115035000D01*
X148349999Y-114749285D01*
X148278571Y-114606428D01*
X148207142Y-114535000D01*
X148064285Y-114463571D01*
X146278571Y-114963571D02*
X146278571Y-115963571D01*
X146635714Y-114392142D02*
X146992857Y-115463571D01*
X146064285Y-115463571D01*
X145207142Y-114463571D02*
X145064285Y-114463571D01*
X144921428Y-114535000D01*
X144849999Y-114606428D01*
X144778571Y-114749285D01*
X144707142Y-115035000D01*
X144707142Y-115392142D01*
X144778571Y-115677857D01*
X144849999Y-115820714D01*
X144921428Y-115892142D01*
X145064285Y-115963571D01*
X145207142Y-115963571D01*
X145349999Y-115892142D01*
X145421428Y-115820714D01*
X145492857Y-115677857D01*
X145564285Y-115392142D01*
X145564285Y-115035000D01*
X145492857Y-114749285D01*
X145421428Y-114606428D01*
X145349999Y-114535000D01*
X145207142Y-114463571D01*
X184992857Y-118378571D02*
X184992857Y-117592857D01*
X185064285Y-117450000D01*
X185207142Y-117378571D01*
X185492857Y-117378571D01*
X185635714Y-117450000D01*
X184992857Y-118307142D02*
X185135714Y-118378571D01*
X185492857Y-118378571D01*
X185635714Y-118307142D01*
X185707142Y-118164285D01*
X185707142Y-118021428D01*
X185635714Y-117878571D01*
X185492857Y-117807142D01*
X185135714Y-117807142D01*
X184992857Y-117735714D01*
X184278571Y-117378571D02*
X184278571Y-118378571D01*
X184278571Y-117521428D02*
X184207142Y-117450000D01*
X184064285Y-117378571D01*
X183850000Y-117378571D01*
X183707142Y-117450000D01*
X183635714Y-117592857D01*
X183635714Y-118378571D01*
X182278571Y-118378571D02*
X182278571Y-116878571D01*
X182278571Y-118307142D02*
X182421428Y-118378571D01*
X182707142Y-118378571D01*
X182850000Y-118307142D01*
X182921428Y-118235714D01*
X182992857Y-118092857D01*
X182992857Y-117664285D01*
X182921428Y-117521428D01*
X182850000Y-117450000D01*
X182707142Y-117378571D01*
X182421428Y-117378571D01*
X182278571Y-117450000D01*
X180421428Y-118378571D02*
X180421428Y-116878571D01*
X179921428Y-117950000D01*
X179421428Y-116878571D01*
X179421428Y-118378571D01*
X177850000Y-118235714D02*
X177921428Y-118307142D01*
X178135714Y-118378571D01*
X178278571Y-118378571D01*
X178492857Y-118307142D01*
X178635714Y-118164285D01*
X178707142Y-118021428D01*
X178778571Y-117735714D01*
X178778571Y-117521428D01*
X178707142Y-117235714D01*
X178635714Y-117092857D01*
X178492857Y-116950000D01*
X178278571Y-116878571D01*
X178135714Y-116878571D01*
X177921428Y-116950000D01*
X177850000Y-117021428D01*
X177207142Y-118378571D02*
X177207142Y-116878571D01*
X176635714Y-116878571D01*
X176492857Y-116950000D01*
X176421428Y-117021428D01*
X176350000Y-117164285D01*
X176350000Y-117378571D01*
X176421428Y-117521428D01*
X176492857Y-117592857D01*
X176635714Y-117664285D01*
X177207142Y-117664285D01*
X175635714Y-118378571D02*
X175350000Y-118378571D01*
X175207142Y-118307142D01*
X175135714Y-118235714D01*
X174992857Y-118021428D01*
X174921428Y-117735714D01*
X174921428Y-117164285D01*
X174992857Y-117021428D01*
X175064285Y-116950000D01*
X175207142Y-116878571D01*
X175492857Y-116878571D01*
X175635714Y-116950000D01*
X175707142Y-117021428D01*
X175778571Y-117164285D01*
X175778571Y-117521428D01*
X175707142Y-117664285D01*
X175635714Y-117735714D01*
X175492857Y-117807142D01*
X175207142Y-117807142D01*
X175064285Y-117735714D01*
X174992857Y-117664285D01*
X174921428Y-117521428D01*
X174421428Y-116878571D02*
X173421428Y-116878571D01*
X174064285Y-118378571D01*
X172564285Y-116878571D02*
X172421428Y-116878571D01*
X172278571Y-116950000D01*
X172207142Y-117021428D01*
X172135714Y-117164285D01*
X172064285Y-117450000D01*
X172064285Y-117807142D01*
X172135714Y-118092857D01*
X172207142Y-118235714D01*
X172278571Y-118307142D01*
X172421428Y-118378571D01*
X172564285Y-118378571D01*
X172707142Y-118307142D01*
X172778571Y-118235714D01*
X172850000Y-118092857D01*
X172921428Y-117807142D01*
X172921428Y-117450000D01*
X172850000Y-117164285D01*
X172778571Y-117021428D01*
X172707142Y-116950000D01*
X172564285Y-116878571D01*
X171135714Y-116878571D02*
X170992857Y-116878571D01*
X170850000Y-116950000D01*
X170778571Y-117021428D01*
X170707142Y-117164285D01*
X170635714Y-117450000D01*
X170635714Y-117807142D01*
X170707142Y-118092857D01*
X170778571Y-118235714D01*
X170850000Y-118307142D01*
X170992857Y-118378571D01*
X171135714Y-118378571D01*
X171278571Y-118307142D01*
X171350000Y-118235714D01*
X171421428Y-118092857D01*
X171492857Y-117807142D01*
X171492857Y-117450000D01*
X171421428Y-117164285D01*
X171350000Y-117021428D01*
X171278571Y-116950000D01*
X171135714Y-116878571D01*
X169064285Y-117378571D02*
X168492857Y-117378571D01*
X168850000Y-116878571D02*
X168850000Y-118164285D01*
X168778571Y-118307142D01*
X168635714Y-118378571D01*
X168492857Y-118378571D01*
X167421428Y-118307142D02*
X167564285Y-118378571D01*
X167850000Y-118378571D01*
X167992857Y-118307142D01*
X168064285Y-118164285D01*
X168064285Y-117592857D01*
X167992857Y-117450000D01*
X167850000Y-117378571D01*
X167564285Y-117378571D01*
X167421428Y-117450000D01*
X167350000Y-117592857D01*
X167350000Y-117735714D01*
X168064285Y-117878571D01*
X166707142Y-118378571D02*
X166707142Y-117378571D01*
X166707142Y-117521428D02*
X166635714Y-117450000D01*
X166492857Y-117378571D01*
X166278571Y-117378571D01*
X166135714Y-117450000D01*
X166064285Y-117592857D01*
X166064285Y-118378571D01*
X166064285Y-117592857D02*
X165992857Y-117450000D01*
X165850000Y-117378571D01*
X165635714Y-117378571D01*
X165492857Y-117450000D01*
X165421428Y-117592857D01*
X165421428Y-118378571D01*
X164707142Y-117378571D02*
X164707142Y-118878571D01*
X164707142Y-117450000D02*
X164564285Y-117378571D01*
X164278571Y-117378571D01*
X164135714Y-117450000D01*
X164064285Y-117521428D01*
X163992857Y-117664285D01*
X163992857Y-118092857D01*
X164064285Y-118235714D01*
X164135714Y-118307142D01*
X164278571Y-118378571D01*
X164564285Y-118378571D01*
X164707142Y-118307142D01*
X162778571Y-118307142D02*
X162921428Y-118378571D01*
X163207142Y-118378571D01*
X163350000Y-118307142D01*
X163421428Y-118164285D01*
X163421428Y-117592857D01*
X163350000Y-117450000D01*
X163207142Y-117378571D01*
X162921428Y-117378571D01*
X162778571Y-117450000D01*
X162707142Y-117592857D01*
X162707142Y-117735714D01*
X163421428Y-117878571D01*
X162064285Y-118378571D02*
X162064285Y-117378571D01*
X162064285Y-117664285D02*
X161992857Y-117521428D01*
X161921428Y-117450000D01*
X161778571Y-117378571D01*
X161635714Y-117378571D01*
X160492857Y-118378571D02*
X160492857Y-117592857D01*
X160564285Y-117450000D01*
X160707142Y-117378571D01*
X160992857Y-117378571D01*
X161135714Y-117450000D01*
X160492857Y-118307142D02*
X160635714Y-118378571D01*
X160992857Y-118378571D01*
X161135714Y-118307142D01*
X161207142Y-118164285D01*
X161207142Y-118021428D01*
X161135714Y-117878571D01*
X160992857Y-117807142D01*
X160635714Y-117807142D01*
X160492857Y-117735714D01*
X159992857Y-117378571D02*
X159421428Y-117378571D01*
X159778571Y-116878571D02*
X159778571Y-118164285D01*
X159707142Y-118307142D01*
X159564285Y-118378571D01*
X159421428Y-118378571D01*
X158278571Y-117378571D02*
X158278571Y-118378571D01*
X158921428Y-117378571D02*
X158921428Y-118164285D01*
X158850000Y-118307142D01*
X158707142Y-118378571D01*
X158492857Y-118378571D01*
X158350000Y-118307142D01*
X158278571Y-118235714D01*
X157564285Y-118378571D02*
X157564285Y-117378571D01*
X157564285Y-117664285D02*
X157492857Y-117521428D01*
X157421428Y-117450000D01*
X157278571Y-117378571D01*
X157135714Y-117378571D01*
X156064285Y-118307142D02*
X156207142Y-118378571D01*
X156492857Y-118378571D01*
X156635714Y-118307142D01*
X156707142Y-118164285D01*
X156707142Y-117592857D01*
X156635714Y-117450000D01*
X156492857Y-117378571D01*
X156207142Y-117378571D01*
X156064285Y-117450000D01*
X155992857Y-117592857D01*
X155992857Y-117735714D01*
X156707142Y-117878571D01*
X154278571Y-118307142D02*
X154135714Y-118378571D01*
X153850000Y-118378571D01*
X153707142Y-118307142D01*
X153635714Y-118164285D01*
X153635714Y-118092857D01*
X153707142Y-117950000D01*
X153850000Y-117878571D01*
X154064285Y-117878571D01*
X154207142Y-117807142D01*
X154278571Y-117664285D01*
X154278571Y-117592857D01*
X154207142Y-117450000D01*
X154064285Y-117378571D01*
X153850000Y-117378571D01*
X153707142Y-117450000D01*
X152421428Y-118307142D02*
X152564285Y-118378571D01*
X152850000Y-118378571D01*
X152992857Y-118307142D01*
X153064285Y-118164285D01*
X153064285Y-117592857D01*
X152992857Y-117450000D01*
X152850000Y-117378571D01*
X152564285Y-117378571D01*
X152421428Y-117450000D01*
X152350000Y-117592857D01*
X152350000Y-117735714D01*
X153064285Y-117878571D01*
X151707142Y-117378571D02*
X151707142Y-118378571D01*
X151707142Y-117521428D02*
X151635714Y-117450000D01*
X151492857Y-117378571D01*
X151278571Y-117378571D01*
X151135714Y-117450000D01*
X151064285Y-117592857D01*
X151064285Y-118378571D01*
X150421428Y-118307142D02*
X150278571Y-118378571D01*
X149992857Y-118378571D01*
X149850000Y-118307142D01*
X149778571Y-118164285D01*
X149778571Y-118092857D01*
X149850000Y-117950000D01*
X149992857Y-117878571D01*
X150207142Y-117878571D01*
X150350000Y-117807142D01*
X150421428Y-117664285D01*
X150421428Y-117592857D01*
X150350000Y-117450000D01*
X150207142Y-117378571D01*
X149992857Y-117378571D01*
X149850000Y-117450000D01*
X148921428Y-118378571D02*
X149064285Y-118307142D01*
X149135714Y-118235714D01*
X149207142Y-118092857D01*
X149207142Y-117664285D01*
X149135714Y-117521428D01*
X149064285Y-117450000D01*
X148921428Y-117378571D01*
X148707142Y-117378571D01*
X148564285Y-117450000D01*
X148492857Y-117521428D01*
X148421428Y-117664285D01*
X148421428Y-118092857D01*
X148492857Y-118235714D01*
X148564285Y-118307142D01*
X148707142Y-118378571D01*
X148921428Y-118378571D01*
X147778571Y-118378571D02*
X147778571Y-117378571D01*
X147778571Y-117664285D02*
X147707142Y-117521428D01*
X147635714Y-117450000D01*
X147492857Y-117378571D01*
X147350000Y-117378571D01*
X189385714Y-120007857D02*
X189171428Y-120079285D01*
X189100000Y-120150714D01*
X189028571Y-120293571D01*
X189028571Y-120507857D01*
X189100000Y-120650714D01*
X189171428Y-120722142D01*
X189314285Y-120793571D01*
X189885714Y-120793571D01*
X189885714Y-119293571D01*
X189385714Y-119293571D01*
X189242857Y-119365000D01*
X189171428Y-119436428D01*
X189100000Y-119579285D01*
X189100000Y-119722142D01*
X189171428Y-119865000D01*
X189242857Y-119936428D01*
X189385714Y-120007857D01*
X189885714Y-120007857D01*
X187742857Y-120793571D02*
X187742857Y-120007857D01*
X187814285Y-119865000D01*
X187957142Y-119793571D01*
X188242857Y-119793571D01*
X188385714Y-119865000D01*
X187742857Y-120722142D02*
X187885714Y-120793571D01*
X188242857Y-120793571D01*
X188385714Y-120722142D01*
X188457142Y-120579285D01*
X188457142Y-120436428D01*
X188385714Y-120293571D01*
X188242857Y-120222142D01*
X187885714Y-120222142D01*
X187742857Y-120150714D01*
X187242857Y-119793571D02*
X186671428Y-119793571D01*
X187028571Y-119293571D02*
X187028571Y-120579285D01*
X186957142Y-120722142D01*
X186814285Y-120793571D01*
X186671428Y-120793571D01*
X186385714Y-119793571D02*
X185814285Y-119793571D01*
X186171428Y-119293571D02*
X186171428Y-120579285D01*
X186100000Y-120722142D01*
X185957142Y-120793571D01*
X185814285Y-120793571D01*
X184742857Y-120722142D02*
X184885714Y-120793571D01*
X185171428Y-120793571D01*
X185314285Y-120722142D01*
X185385714Y-120579285D01*
X185385714Y-120007857D01*
X185314285Y-119865000D01*
X185171428Y-119793571D01*
X184885714Y-119793571D01*
X184742857Y-119865000D01*
X184671428Y-120007857D01*
X184671428Y-120150714D01*
X185385714Y-120293571D01*
X184028571Y-120793571D02*
X184028571Y-119793571D01*
X184028571Y-120079285D02*
X183957142Y-119936428D01*
X183885714Y-119865000D01*
X183742857Y-119793571D01*
X183600000Y-119793571D01*
X183242857Y-119793571D02*
X182885714Y-120793571D01*
X182528571Y-119793571D02*
X182885714Y-120793571D01*
X183028571Y-121150714D01*
X183100000Y-121222142D01*
X183242857Y-121293571D01*
X180600000Y-120793571D02*
X180742857Y-120722142D01*
X180814285Y-120650714D01*
X180885714Y-120507857D01*
X180885714Y-120079285D01*
X180814285Y-119936428D01*
X180742857Y-119865000D01*
X180600000Y-119793571D01*
X180385714Y-119793571D01*
X180242857Y-119865000D01*
X180171428Y-119936428D01*
X180100000Y-120079285D01*
X180100000Y-120507857D01*
X180171428Y-120650714D01*
X180242857Y-120722142D01*
X180385714Y-120793571D01*
X180600000Y-120793571D01*
X179457142Y-119793571D02*
X179457142Y-121293571D01*
X179457142Y-119865000D02*
X179314285Y-119793571D01*
X179028571Y-119793571D01*
X178885714Y-119865000D01*
X178814285Y-119936428D01*
X178742857Y-120079285D01*
X178742857Y-120507857D01*
X178814285Y-120650714D01*
X178885714Y-120722142D01*
X179028571Y-120793571D01*
X179314285Y-120793571D01*
X179457142Y-120722142D01*
X177528571Y-120722142D02*
X177671428Y-120793571D01*
X177957142Y-120793571D01*
X178100000Y-120722142D01*
X178171428Y-120579285D01*
X178171428Y-120007857D01*
X178100000Y-119865000D01*
X177957142Y-119793571D01*
X177671428Y-119793571D01*
X177528571Y-119865000D01*
X177457142Y-120007857D01*
X177457142Y-120150714D01*
X178171428Y-120293571D01*
X176814285Y-120793571D02*
X176814285Y-119793571D01*
X176814285Y-120079285D02*
X176742857Y-119936428D01*
X176671428Y-119865000D01*
X176528571Y-119793571D01*
X176385714Y-119793571D01*
X175242857Y-120793571D02*
X175242857Y-120007857D01*
X175314285Y-119865000D01*
X175457142Y-119793571D01*
X175742857Y-119793571D01*
X175885714Y-119865000D01*
X175242857Y-120722142D02*
X175385714Y-120793571D01*
X175742857Y-120793571D01*
X175885714Y-120722142D01*
X175957142Y-120579285D01*
X175957142Y-120436428D01*
X175885714Y-120293571D01*
X175742857Y-120222142D01*
X175385714Y-120222142D01*
X175242857Y-120150714D01*
X174742857Y-119793571D02*
X174171428Y-119793571D01*
X174528571Y-119293571D02*
X174528571Y-120579285D01*
X174457142Y-120722142D01*
X174314285Y-120793571D01*
X174171428Y-120793571D01*
X173100000Y-120722142D02*
X173242857Y-120793571D01*
X173528571Y-120793571D01*
X173671428Y-120722142D01*
X173742857Y-120579285D01*
X173742857Y-120007857D01*
X173671428Y-119865000D01*
X173528571Y-119793571D01*
X173242857Y-119793571D01*
X173100000Y-119865000D01*
X173028571Y-120007857D01*
X173028571Y-120150714D01*
X173742857Y-120293571D01*
X171742857Y-120793571D02*
X171742857Y-119293571D01*
X171742857Y-120722142D02*
X171885714Y-120793571D01*
X172171428Y-120793571D01*
X172314285Y-120722142D01*
X172385714Y-120650714D01*
X172457142Y-120507857D01*
X172457142Y-120079285D01*
X172385714Y-119936428D01*
X172314285Y-119865000D01*
X172171428Y-119793571D01*
X171885714Y-119793571D01*
X171742857Y-119865000D01*
X169242857Y-119793571D02*
X169242857Y-120793571D01*
X169885714Y-119793571D02*
X169885714Y-120579285D01*
X169814285Y-120722142D01*
X169671428Y-120793571D01*
X169457142Y-120793571D01*
X169314285Y-120722142D01*
X169242857Y-120650714D01*
X168600000Y-120722142D02*
X168457142Y-120793571D01*
X168171428Y-120793571D01*
X168028571Y-120722142D01*
X167957142Y-120579285D01*
X167957142Y-120507857D01*
X168028571Y-120365000D01*
X168171428Y-120293571D01*
X168385714Y-120293571D01*
X168528571Y-120222142D01*
X168600000Y-120079285D01*
X168600000Y-120007857D01*
X168528571Y-119865000D01*
X168385714Y-119793571D01*
X168171428Y-119793571D01*
X168028571Y-119865000D01*
X167314285Y-120793571D02*
X167314285Y-119793571D01*
X167314285Y-119293571D02*
X167385714Y-119365000D01*
X167314285Y-119436428D01*
X167242857Y-119365000D01*
X167314285Y-119293571D01*
X167314285Y-119436428D01*
X166600000Y-119793571D02*
X166600000Y-120793571D01*
X166600000Y-119936428D02*
X166528571Y-119865000D01*
X166385714Y-119793571D01*
X166171428Y-119793571D01*
X166028571Y-119865000D01*
X165957142Y-120007857D01*
X165957142Y-120793571D01*
X164600000Y-119793571D02*
X164600000Y-121007857D01*
X164671428Y-121150714D01*
X164742857Y-121222142D01*
X164885714Y-121293571D01*
X165100000Y-121293571D01*
X165242857Y-121222142D01*
X164600000Y-120722142D02*
X164742857Y-120793571D01*
X165028571Y-120793571D01*
X165171428Y-120722142D01*
X165242857Y-120650714D01*
X165314285Y-120507857D01*
X165314285Y-120079285D01*
X165242857Y-119936428D01*
X165171428Y-119865000D01*
X165028571Y-119793571D01*
X164742857Y-119793571D01*
X164600000Y-119865000D01*
X162100000Y-120793571D02*
X162100000Y-120007857D01*
X162171428Y-119865000D01*
X162314285Y-119793571D01*
X162600000Y-119793571D01*
X162742857Y-119865000D01*
X162100000Y-120722142D02*
X162242857Y-120793571D01*
X162600000Y-120793571D01*
X162742857Y-120722142D01*
X162814285Y-120579285D01*
X162814285Y-120436428D01*
X162742857Y-120293571D01*
X162600000Y-120222142D01*
X162242857Y-120222142D01*
X162100000Y-120150714D01*
X159385714Y-120650714D02*
X159457142Y-120722142D01*
X159671428Y-120793571D01*
X159814285Y-120793571D01*
X160028571Y-120722142D01*
X160171428Y-120579285D01*
X160242857Y-120436428D01*
X160314285Y-120150714D01*
X160314285Y-119936428D01*
X160242857Y-119650714D01*
X160171428Y-119507857D01*
X160028571Y-119365000D01*
X159814285Y-119293571D01*
X159671428Y-119293571D01*
X159457142Y-119365000D01*
X159385714Y-119436428D01*
X157885714Y-120793571D02*
X158385714Y-120079285D01*
X158742857Y-120793571D02*
X158742857Y-119293571D01*
X158171428Y-119293571D01*
X158028571Y-119365000D01*
X157957142Y-119436428D01*
X157885714Y-119579285D01*
X157885714Y-119793571D01*
X157957142Y-119936428D01*
X158028571Y-120007857D01*
X158171428Y-120079285D01*
X158742857Y-120079285D01*
X157314285Y-119436428D02*
X157242857Y-119365000D01*
X157100000Y-119293571D01*
X156742857Y-119293571D01*
X156600000Y-119365000D01*
X156528571Y-119436428D01*
X156457142Y-119579285D01*
X156457142Y-119722142D01*
X156528571Y-119936428D01*
X157385714Y-120793571D01*
X156457142Y-120793571D01*
X155528571Y-119293571D02*
X155385714Y-119293571D01*
X155242857Y-119365000D01*
X155171428Y-119436428D01*
X155100000Y-119579285D01*
X155028571Y-119865000D01*
X155028571Y-120222142D01*
X155100000Y-120507857D01*
X155171428Y-120650714D01*
X155242857Y-120722142D01*
X155385714Y-120793571D01*
X155528571Y-120793571D01*
X155671428Y-120722142D01*
X155742857Y-120650714D01*
X155814285Y-120507857D01*
X155885714Y-120222142D01*
X155885714Y-119865000D01*
X155814285Y-119579285D01*
X155742857Y-119436428D01*
X155671428Y-119365000D01*
X155528571Y-119293571D01*
X154528571Y-119293571D02*
X153600000Y-119293571D01*
X154100000Y-119865000D01*
X153885714Y-119865000D01*
X153742857Y-119936428D01*
X153671428Y-120007857D01*
X153600000Y-120150714D01*
X153600000Y-120507857D01*
X153671428Y-120650714D01*
X153742857Y-120722142D01*
X153885714Y-120793571D01*
X154314285Y-120793571D01*
X154457142Y-120722142D01*
X154528571Y-120650714D01*
X153028571Y-119436428D02*
X152957142Y-119365000D01*
X152814285Y-119293571D01*
X152457142Y-119293571D01*
X152314285Y-119365000D01*
X152242857Y-119436428D01*
X152171428Y-119579285D01*
X152171428Y-119722142D01*
X152242857Y-119936428D01*
X153100000Y-120793571D01*
X152171428Y-120793571D01*
X150385714Y-120793571D02*
X150385714Y-119293571D01*
X150385714Y-119865000D02*
X150242857Y-119793571D01*
X149957142Y-119793571D01*
X149814285Y-119865000D01*
X149742857Y-119936428D01*
X149671428Y-120079285D01*
X149671428Y-120507857D01*
X149742857Y-120650714D01*
X149814285Y-120722142D01*
X149957142Y-120793571D01*
X150242857Y-120793571D01*
X150385714Y-120722142D01*
X148385714Y-120793571D02*
X148385714Y-120007857D01*
X148457142Y-119865000D01*
X148600000Y-119793571D01*
X148885714Y-119793571D01*
X149028571Y-119865000D01*
X148385714Y-120722142D02*
X148528571Y-120793571D01*
X148885714Y-120793571D01*
X149028571Y-120722142D01*
X149100000Y-120579285D01*
X149100000Y-120436428D01*
X149028571Y-120293571D01*
X148885714Y-120222142D01*
X148528571Y-120222142D01*
X148385714Y-120150714D01*
X147885714Y-119793571D02*
X147314285Y-119793571D01*
X147671428Y-119293571D02*
X147671428Y-120579285D01*
X147600000Y-120722142D01*
X147457142Y-120793571D01*
X147314285Y-120793571D01*
X147028571Y-119793571D02*
X146457142Y-119793571D01*
X146814285Y-119293571D02*
X146814285Y-120579285D01*
X146742857Y-120722142D01*
X146600000Y-120793571D01*
X146457142Y-120793571D01*
X145385714Y-120722142D02*
X145528571Y-120793571D01*
X145814285Y-120793571D01*
X145957142Y-120722142D01*
X146028571Y-120579285D01*
X146028571Y-120007857D01*
X145957142Y-119865000D01*
X145814285Y-119793571D01*
X145528571Y-119793571D01*
X145385714Y-119865000D01*
X145314285Y-120007857D01*
X145314285Y-120150714D01*
X146028571Y-120293571D01*
X144671428Y-120793571D02*
X144671428Y-119793571D01*
X144671428Y-120079285D02*
X144600000Y-119936428D01*
X144528571Y-119865000D01*
X144385714Y-119793571D01*
X144242857Y-119793571D01*
X143885714Y-119793571D02*
X143528571Y-120793571D01*
X143171428Y-119793571D02*
X143528571Y-120793571D01*
X143671428Y-121150714D01*
X143742857Y-121222142D01*
X143885714Y-121293571D01*
X190421428Y-123208571D02*
X190564285Y-123137142D01*
X190635714Y-123065714D01*
X190707142Y-122922857D01*
X190707142Y-122494285D01*
X190635714Y-122351428D01*
X190564285Y-122280000D01*
X190421428Y-122208571D01*
X190207142Y-122208571D01*
X190064285Y-122280000D01*
X189992857Y-122351428D01*
X189921428Y-122494285D01*
X189921428Y-122922857D01*
X189992857Y-123065714D01*
X190064285Y-123137142D01*
X190207142Y-123208571D01*
X190421428Y-123208571D01*
X189278571Y-123208571D02*
X189278571Y-122208571D01*
X189278571Y-122494285D02*
X189207142Y-122351428D01*
X189135714Y-122280000D01*
X188992857Y-122208571D01*
X188850000Y-122208571D01*
X186564285Y-123137142D02*
X186707142Y-123208571D01*
X186992857Y-123208571D01*
X187135714Y-123137142D01*
X187207142Y-123065714D01*
X187278571Y-122922857D01*
X187278571Y-122494285D01*
X187207142Y-122351428D01*
X187135714Y-122280000D01*
X186992857Y-122208571D01*
X186707142Y-122208571D01*
X186564285Y-122280000D01*
X185278571Y-123208571D02*
X185278571Y-122422857D01*
X185350000Y-122280000D01*
X185492857Y-122208571D01*
X185778571Y-122208571D01*
X185921428Y-122280000D01*
X185278571Y-123137142D02*
X185421428Y-123208571D01*
X185778571Y-123208571D01*
X185921428Y-123137142D01*
X185992857Y-122994285D01*
X185992857Y-122851428D01*
X185921428Y-122708571D01*
X185778571Y-122637142D01*
X185421428Y-122637142D01*
X185278571Y-122565714D01*
X184564285Y-122208571D02*
X184564285Y-123208571D01*
X184564285Y-122351428D02*
X184492857Y-122280000D01*
X184350000Y-122208571D01*
X184135714Y-122208571D01*
X183992857Y-122280000D01*
X183921428Y-122422857D01*
X183921428Y-123208571D01*
X182064285Y-123208571D02*
X182064285Y-121708571D01*
X182064285Y-122280000D02*
X181921428Y-122208571D01*
X181635714Y-122208571D01*
X181492857Y-122280000D01*
X181421428Y-122351428D01*
X181350000Y-122494285D01*
X181350000Y-122922857D01*
X181421428Y-123065714D01*
X181492857Y-123137142D01*
X181635714Y-123208571D01*
X181921428Y-123208571D01*
X182064285Y-123137142D01*
X180135714Y-123137142D02*
X180278571Y-123208571D01*
X180564285Y-123208571D01*
X180707142Y-123137142D01*
X180778571Y-122994285D01*
X180778571Y-122422857D01*
X180707142Y-122280000D01*
X180564285Y-122208571D01*
X180278571Y-122208571D01*
X180135714Y-122280000D01*
X180064285Y-122422857D01*
X180064285Y-122565714D01*
X180778571Y-122708571D01*
X178278571Y-122208571D02*
X178278571Y-123708571D01*
X178278571Y-122280000D02*
X178135714Y-122208571D01*
X177850000Y-122208571D01*
X177707142Y-122280000D01*
X177635714Y-122351428D01*
X177564285Y-122494285D01*
X177564285Y-122922857D01*
X177635714Y-123065714D01*
X177707142Y-123137142D01*
X177850000Y-123208571D01*
X178135714Y-123208571D01*
X178278571Y-123137142D01*
X176707142Y-123208571D02*
X176850000Y-123137142D01*
X176921428Y-123065714D01*
X176992857Y-122922857D01*
X176992857Y-122494285D01*
X176921428Y-122351428D01*
X176850000Y-122280000D01*
X176707142Y-122208571D01*
X176492857Y-122208571D01*
X176350000Y-122280000D01*
X176278571Y-122351428D01*
X176207142Y-122494285D01*
X176207142Y-122922857D01*
X176278571Y-123065714D01*
X176350000Y-123137142D01*
X176492857Y-123208571D01*
X176707142Y-123208571D01*
X175707142Y-122208571D02*
X175421428Y-123208571D01*
X175135714Y-122494285D01*
X174850000Y-123208571D01*
X174564285Y-122208571D01*
X173421428Y-123137142D02*
X173564285Y-123208571D01*
X173850000Y-123208571D01*
X173992857Y-123137142D01*
X174064285Y-122994285D01*
X174064285Y-122422857D01*
X173992857Y-122280000D01*
X173850000Y-122208571D01*
X173564285Y-122208571D01*
X173421428Y-122280000D01*
X173350000Y-122422857D01*
X173350000Y-122565714D01*
X174064285Y-122708571D01*
X172707142Y-123208571D02*
X172707142Y-122208571D01*
X172707142Y-122494285D02*
X172635714Y-122351428D01*
X172564285Y-122280000D01*
X172421428Y-122208571D01*
X172278571Y-122208571D01*
X171207142Y-123137142D02*
X171350000Y-123208571D01*
X171635714Y-123208571D01*
X171778571Y-123137142D01*
X171850000Y-122994285D01*
X171850000Y-122422857D01*
X171778571Y-122280000D01*
X171635714Y-122208571D01*
X171350000Y-122208571D01*
X171207142Y-122280000D01*
X171135714Y-122422857D01*
X171135714Y-122565714D01*
X171850000Y-122708571D01*
X169850000Y-123208571D02*
X169850000Y-121708571D01*
X169850000Y-123137142D02*
X169992857Y-123208571D01*
X170278571Y-123208571D01*
X170421428Y-123137142D01*
X170492857Y-123065714D01*
X170564285Y-122922857D01*
X170564285Y-122494285D01*
X170492857Y-122351428D01*
X170421428Y-122280000D01*
X170278571Y-122208571D01*
X169992857Y-122208571D01*
X169850000Y-122280000D01*
X168135714Y-122208571D02*
X167778571Y-123208571D01*
X167421428Y-122208571D01*
X166850000Y-123208571D02*
X166850000Y-122208571D01*
X166850000Y-121708571D02*
X166921428Y-121780000D01*
X166850000Y-121851428D01*
X166778571Y-121780000D01*
X166850000Y-121708571D01*
X166850000Y-121851428D01*
X165492857Y-123208571D02*
X165492857Y-122422857D01*
X165564285Y-122280000D01*
X165707142Y-122208571D01*
X165992857Y-122208571D01*
X166135714Y-122280000D01*
X165492857Y-123137142D02*
X165635714Y-123208571D01*
X165992857Y-123208571D01*
X166135714Y-123137142D01*
X166207142Y-122994285D01*
X166207142Y-122851428D01*
X166135714Y-122708571D01*
X165992857Y-122637142D01*
X165635714Y-122637142D01*
X165492857Y-122565714D01*
X162992857Y-123208571D02*
X162992857Y-122422857D01*
X163064285Y-122280000D01*
X163207142Y-122208571D01*
X163492857Y-122208571D01*
X163635714Y-122280000D01*
X162992857Y-123137142D02*
X163135714Y-123208571D01*
X163492857Y-123208571D01*
X163635714Y-123137142D01*
X163707142Y-122994285D01*
X163707142Y-122851428D01*
X163635714Y-122708571D01*
X163492857Y-122637142D01*
X163135714Y-122637142D01*
X162992857Y-122565714D01*
X161135714Y-123208571D02*
X161135714Y-122208571D01*
X161135714Y-122351428D02*
X161064285Y-122280000D01*
X160921428Y-122208571D01*
X160707142Y-122208571D01*
X160564285Y-122280000D01*
X160492857Y-122422857D01*
X160492857Y-123208571D01*
X160492857Y-122422857D02*
X160421428Y-122280000D01*
X160278571Y-122208571D01*
X160064285Y-122208571D01*
X159921428Y-122280000D01*
X159850000Y-122422857D01*
X159850000Y-123208571D01*
X159135714Y-123208571D02*
X159135714Y-122208571D01*
X159135714Y-121708571D02*
X159207142Y-121780000D01*
X159135714Y-121851428D01*
X159064285Y-121780000D01*
X159135714Y-121708571D01*
X159135714Y-121851428D01*
X157778571Y-123137142D02*
X157921428Y-123208571D01*
X158207142Y-123208571D01*
X158350000Y-123137142D01*
X158421428Y-123065714D01*
X158492857Y-122922857D01*
X158492857Y-122494285D01*
X158421428Y-122351428D01*
X158350000Y-122280000D01*
X158207142Y-122208571D01*
X157921428Y-122208571D01*
X157778571Y-122280000D01*
X157135714Y-123208571D02*
X157135714Y-122208571D01*
X157135714Y-122494285D02*
X157064285Y-122351428D01*
X156992857Y-122280000D01*
X156850000Y-122208571D01*
X156707142Y-122208571D01*
X155992857Y-123208571D02*
X156135714Y-123137142D01*
X156207142Y-123065714D01*
X156278571Y-122922857D01*
X156278571Y-122494285D01*
X156207142Y-122351428D01*
X156135714Y-122280000D01*
X155992857Y-122208571D01*
X155778571Y-122208571D01*
X155635714Y-122280000D01*
X155564285Y-122351428D01*
X155492857Y-122494285D01*
X155492857Y-122922857D01*
X155564285Y-123065714D01*
X155635714Y-123137142D01*
X155778571Y-123208571D01*
X155992857Y-123208571D01*
X154850000Y-122637142D02*
X153707142Y-122637142D01*
X152350000Y-122208571D02*
X152350000Y-123208571D01*
X152992857Y-122208571D02*
X152992857Y-122994285D01*
X152921428Y-123137142D01*
X152778571Y-123208571D01*
X152564285Y-123208571D01*
X152421428Y-123137142D01*
X152350000Y-123065714D01*
X151707142Y-123137142D02*
X151564285Y-123208571D01*
X151278571Y-123208571D01*
X151135714Y-123137142D01*
X151064285Y-122994285D01*
X151064285Y-122922857D01*
X151135714Y-122780000D01*
X151278571Y-122708571D01*
X151492857Y-122708571D01*
X151635714Y-122637142D01*
X151707142Y-122494285D01*
X151707142Y-122422857D01*
X151635714Y-122280000D01*
X151492857Y-122208571D01*
X151278571Y-122208571D01*
X151135714Y-122280000D01*
X150421428Y-123208571D02*
X150421428Y-121708571D01*
X150421428Y-122280000D02*
X150278571Y-122208571D01*
X149992857Y-122208571D01*
X149850000Y-122280000D01*
X149778571Y-122351428D01*
X149707142Y-122494285D01*
X149707142Y-122922857D01*
X149778571Y-123065714D01*
X149850000Y-123137142D01*
X149992857Y-123208571D01*
X150278571Y-123208571D01*
X150421428Y-123137142D01*
X147278571Y-123137142D02*
X147421428Y-123208571D01*
X147707142Y-123208571D01*
X147850000Y-123137142D01*
X147921428Y-123065714D01*
X147992857Y-122922857D01*
X147992857Y-122494285D01*
X147921428Y-122351428D01*
X147850000Y-122280000D01*
X147707142Y-122208571D01*
X147421428Y-122208571D01*
X147278571Y-122280000D01*
X145992857Y-123208571D02*
X145992857Y-122422857D01*
X146064285Y-122280000D01*
X146207142Y-122208571D01*
X146492857Y-122208571D01*
X146635714Y-122280000D01*
X145992857Y-123137142D02*
X146135714Y-123208571D01*
X146492857Y-123208571D01*
X146635714Y-123137142D01*
X146707142Y-122994285D01*
X146707142Y-122851428D01*
X146635714Y-122708571D01*
X146492857Y-122637142D01*
X146135714Y-122637142D01*
X145992857Y-122565714D01*
X145278571Y-123208571D02*
X145278571Y-121708571D01*
X145278571Y-122280000D02*
X145135714Y-122208571D01*
X144850000Y-122208571D01*
X144707142Y-122280000D01*
X144635714Y-122351428D01*
X144564285Y-122494285D01*
X144564285Y-122922857D01*
X144635714Y-123065714D01*
X144707142Y-123137142D01*
X144850000Y-123208571D01*
X145135714Y-123208571D01*
X145278571Y-123137142D01*
X143707142Y-123208571D02*
X143850000Y-123137142D01*
X143921428Y-122994285D01*
X143921428Y-121708571D01*
X142564285Y-123137142D02*
X142707142Y-123208571D01*
X142992857Y-123208571D01*
X143135714Y-123137142D01*
X143207142Y-122994285D01*
X143207142Y-122422857D01*
X143135714Y-122280000D01*
X142992857Y-122208571D01*
X142707142Y-122208571D01*
X142564285Y-122280000D01*
X142492857Y-122422857D01*
X142492857Y-122565714D01*
X143207142Y-122708571D01*
X191314285Y-124837857D02*
X191814285Y-124837857D01*
X191814285Y-125623571D02*
X191814285Y-124123571D01*
X191100000Y-124123571D01*
X190314285Y-125623571D02*
X190457142Y-125552142D01*
X190528571Y-125480714D01*
X190600000Y-125337857D01*
X190600000Y-124909285D01*
X190528571Y-124766428D01*
X190457142Y-124695000D01*
X190314285Y-124623571D01*
X190100000Y-124623571D01*
X189957142Y-124695000D01*
X189885714Y-124766428D01*
X189814285Y-124909285D01*
X189814285Y-125337857D01*
X189885714Y-125480714D01*
X189957142Y-125552142D01*
X190100000Y-125623571D01*
X190314285Y-125623571D01*
X189171428Y-125623571D02*
X189171428Y-124623571D01*
X189171428Y-124909285D02*
X189100000Y-124766428D01*
X189028571Y-124695000D01*
X188885714Y-124623571D01*
X188742857Y-124623571D01*
X187100000Y-125623571D02*
X187100000Y-124623571D01*
X187100000Y-124766428D02*
X187028571Y-124695000D01*
X186885714Y-124623571D01*
X186671428Y-124623571D01*
X186528571Y-124695000D01*
X186457142Y-124837857D01*
X186457142Y-125623571D01*
X186457142Y-124837857D02*
X186385714Y-124695000D01*
X186242857Y-124623571D01*
X186028571Y-124623571D01*
X185885714Y-124695000D01*
X185814285Y-124837857D01*
X185814285Y-125623571D01*
X184885714Y-125623571D02*
X185028571Y-125552142D01*
X185100000Y-125480714D01*
X185171428Y-125337857D01*
X185171428Y-124909285D01*
X185100000Y-124766428D01*
X185028571Y-124695000D01*
X184885714Y-124623571D01*
X184671428Y-124623571D01*
X184528571Y-124695000D01*
X184457142Y-124766428D01*
X184385714Y-124909285D01*
X184385714Y-125337857D01*
X184457142Y-125480714D01*
X184528571Y-125552142D01*
X184671428Y-125623571D01*
X184885714Y-125623571D01*
X183742857Y-125623571D02*
X183742857Y-124623571D01*
X183742857Y-124909285D02*
X183671428Y-124766428D01*
X183600000Y-124695000D01*
X183457142Y-124623571D01*
X183314285Y-124623571D01*
X182242857Y-125552142D02*
X182385714Y-125623571D01*
X182671428Y-125623571D01*
X182814285Y-125552142D01*
X182885714Y-125409285D01*
X182885714Y-124837857D01*
X182814285Y-124695000D01*
X182671428Y-124623571D01*
X182385714Y-124623571D01*
X182242857Y-124695000D01*
X182171428Y-124837857D01*
X182171428Y-124980714D01*
X182885714Y-125123571D01*
X180385714Y-125623571D02*
X180385714Y-124623571D01*
X180385714Y-124123571D02*
X180457142Y-124195000D01*
X180385714Y-124266428D01*
X180314285Y-124195000D01*
X180385714Y-124123571D01*
X180385714Y-124266428D01*
X179671428Y-124623571D02*
X179671428Y-125623571D01*
X179671428Y-124766428D02*
X179600000Y-124695000D01*
X179457142Y-124623571D01*
X179242857Y-124623571D01*
X179100000Y-124695000D01*
X179028571Y-124837857D01*
X179028571Y-125623571D01*
X178528571Y-124623571D02*
X177957142Y-124623571D01*
X178314285Y-125623571D02*
X178314285Y-124337857D01*
X178242857Y-124195000D01*
X178100000Y-124123571D01*
X177957142Y-124123571D01*
X177242857Y-125623571D02*
X177385714Y-125552142D01*
X177457142Y-125480714D01*
X177528571Y-125337857D01*
X177528571Y-124909285D01*
X177457142Y-124766428D01*
X177385714Y-124695000D01*
X177242857Y-124623571D01*
X177028571Y-124623571D01*
X176885714Y-124695000D01*
X176814285Y-124766428D01*
X176742857Y-124909285D01*
X176742857Y-125337857D01*
X176814285Y-125480714D01*
X176885714Y-125552142D01*
X177028571Y-125623571D01*
X177242857Y-125623571D01*
X176100000Y-125623571D02*
X176100000Y-124623571D01*
X176100000Y-124909285D02*
X176028571Y-124766428D01*
X175957142Y-124695000D01*
X175814285Y-124623571D01*
X175671428Y-124623571D01*
X175171428Y-125623571D02*
X175171428Y-124623571D01*
X175171428Y-124766428D02*
X175100000Y-124695000D01*
X174957142Y-124623571D01*
X174742857Y-124623571D01*
X174600000Y-124695000D01*
X174528571Y-124837857D01*
X174528571Y-125623571D01*
X174528571Y-124837857D02*
X174457142Y-124695000D01*
X174314285Y-124623571D01*
X174100000Y-124623571D01*
X173957142Y-124695000D01*
X173885714Y-124837857D01*
X173885714Y-125623571D01*
X172528571Y-125623571D02*
X172528571Y-124837857D01*
X172600000Y-124695000D01*
X172742857Y-124623571D01*
X173028571Y-124623571D01*
X173171428Y-124695000D01*
X172528571Y-125552142D02*
X172671428Y-125623571D01*
X173028571Y-125623571D01*
X173171428Y-125552142D01*
X173242857Y-125409285D01*
X173242857Y-125266428D01*
X173171428Y-125123571D01*
X173028571Y-125052142D01*
X172671428Y-125052142D01*
X172528571Y-124980714D01*
X172028571Y-124623571D02*
X171457142Y-124623571D01*
X171814285Y-124123571D02*
X171814285Y-125409285D01*
X171742857Y-125552142D01*
X171600000Y-125623571D01*
X171457142Y-125623571D01*
X170957142Y-125623571D02*
X170957142Y-124623571D01*
X170957142Y-124123571D02*
X171028571Y-124195000D01*
X170957142Y-124266428D01*
X170885714Y-124195000D01*
X170957142Y-124123571D01*
X170957142Y-124266428D01*
X170028571Y-125623571D02*
X170171428Y-125552142D01*
X170242857Y-125480714D01*
X170314285Y-125337857D01*
X170314285Y-124909285D01*
X170242857Y-124766428D01*
X170171428Y-124695000D01*
X170028571Y-124623571D01*
X169814285Y-124623571D01*
X169671428Y-124695000D01*
X169600000Y-124766428D01*
X169528571Y-124909285D01*
X169528571Y-125337857D01*
X169600000Y-125480714D01*
X169671428Y-125552142D01*
X169814285Y-125623571D01*
X170028571Y-125623571D01*
X168885714Y-124623571D02*
X168885714Y-125623571D01*
X168885714Y-124766428D02*
X168814285Y-124695000D01*
X168671428Y-124623571D01*
X168457142Y-124623571D01*
X168314285Y-124695000D01*
X168242857Y-124837857D01*
X168242857Y-125623571D01*
X166171428Y-125623571D02*
X166314285Y-125552142D01*
X166385714Y-125480714D01*
X166457142Y-125337857D01*
X166457142Y-124909285D01*
X166385714Y-124766428D01*
X166314285Y-124695000D01*
X166171428Y-124623571D01*
X165957142Y-124623571D01*
X165814285Y-124695000D01*
X165742857Y-124766428D01*
X165671428Y-124909285D01*
X165671428Y-125337857D01*
X165742857Y-125480714D01*
X165814285Y-125552142D01*
X165957142Y-125623571D01*
X166171428Y-125623571D01*
X165028571Y-125623571D02*
X165028571Y-124623571D01*
X165028571Y-124909285D02*
X164957142Y-124766428D01*
X164885714Y-124695000D01*
X164742857Y-124623571D01*
X164600000Y-124623571D01*
X162314285Y-125623571D02*
X162314285Y-124123571D01*
X162314285Y-125552142D02*
X162457142Y-125623571D01*
X162742857Y-125623571D01*
X162885714Y-125552142D01*
X162957142Y-125480714D01*
X163028571Y-125337857D01*
X163028571Y-124909285D01*
X162957142Y-124766428D01*
X162885714Y-124695000D01*
X162742857Y-124623571D01*
X162457142Y-124623571D01*
X162314285Y-124695000D01*
X161385714Y-125623571D02*
X161528571Y-125552142D01*
X161600000Y-125480714D01*
X161671428Y-125337857D01*
X161671428Y-124909285D01*
X161600000Y-124766428D01*
X161528571Y-124695000D01*
X161385714Y-124623571D01*
X161171428Y-124623571D01*
X161028571Y-124695000D01*
X160957142Y-124766428D01*
X160885714Y-124909285D01*
X160885714Y-125337857D01*
X160957142Y-125480714D01*
X161028571Y-125552142D01*
X161171428Y-125623571D01*
X161385714Y-125623571D01*
X159600000Y-125552142D02*
X159742857Y-125623571D01*
X160028571Y-125623571D01*
X160171428Y-125552142D01*
X160242857Y-125480714D01*
X160314285Y-125337857D01*
X160314285Y-124909285D01*
X160242857Y-124766428D01*
X160171428Y-124695000D01*
X160028571Y-124623571D01*
X159742857Y-124623571D01*
X159600000Y-124695000D01*
X158314285Y-124623571D02*
X158314285Y-125623571D01*
X158957142Y-124623571D02*
X158957142Y-125409285D01*
X158885714Y-125552142D01*
X158742857Y-125623571D01*
X158528571Y-125623571D01*
X158385714Y-125552142D01*
X158314285Y-125480714D01*
X157600000Y-125623571D02*
X157600000Y-124623571D01*
X157600000Y-124766428D02*
X157528571Y-124695000D01*
X157385714Y-124623571D01*
X157171428Y-124623571D01*
X157028571Y-124695000D01*
X156957142Y-124837857D01*
X156957142Y-125623571D01*
X156957142Y-124837857D02*
X156885714Y-124695000D01*
X156742857Y-124623571D01*
X156528571Y-124623571D01*
X156385714Y-124695000D01*
X156314285Y-124837857D01*
X156314285Y-125623571D01*
X155028571Y-125552142D02*
X155171428Y-125623571D01*
X155457142Y-125623571D01*
X155600000Y-125552142D01*
X155671428Y-125409285D01*
X155671428Y-124837857D01*
X155600000Y-124695000D01*
X155457142Y-124623571D01*
X155171428Y-124623571D01*
X155028571Y-124695000D01*
X154957142Y-124837857D01*
X154957142Y-124980714D01*
X155671428Y-125123571D01*
X154314285Y-124623571D02*
X154314285Y-125623571D01*
X154314285Y-124766428D02*
X154242857Y-124695000D01*
X154100000Y-124623571D01*
X153885714Y-124623571D01*
X153742857Y-124695000D01*
X153671428Y-124837857D01*
X153671428Y-125623571D01*
X153171428Y-124623571D02*
X152600000Y-124623571D01*
X152957142Y-124123571D02*
X152957142Y-125409285D01*
X152885714Y-125552142D01*
X152742857Y-125623571D01*
X152600000Y-125623571D01*
X151457142Y-125623571D02*
X151457142Y-124837857D01*
X151528571Y-124695000D01*
X151671428Y-124623571D01*
X151957142Y-124623571D01*
X152100000Y-124695000D01*
X151457142Y-125552142D02*
X151600000Y-125623571D01*
X151957142Y-125623571D01*
X152100000Y-125552142D01*
X152171428Y-125409285D01*
X152171428Y-125266428D01*
X152100000Y-125123571D01*
X151957142Y-125052142D01*
X151600000Y-125052142D01*
X151457142Y-124980714D01*
X150957142Y-124623571D02*
X150385714Y-124623571D01*
X150742857Y-124123571D02*
X150742857Y-125409285D01*
X150671428Y-125552142D01*
X150528571Y-125623571D01*
X150385714Y-125623571D01*
X149885714Y-125623571D02*
X149885714Y-124623571D01*
X149885714Y-124123571D02*
X149957142Y-124195000D01*
X149885714Y-124266428D01*
X149814285Y-124195000D01*
X149885714Y-124123571D01*
X149885714Y-124266428D01*
X148957142Y-125623571D02*
X149100000Y-125552142D01*
X149171428Y-125480714D01*
X149242857Y-125337857D01*
X149242857Y-124909285D01*
X149171428Y-124766428D01*
X149100000Y-124695000D01*
X148957142Y-124623571D01*
X148742857Y-124623571D01*
X148600000Y-124695000D01*
X148528571Y-124766428D01*
X148457142Y-124909285D01*
X148457142Y-125337857D01*
X148528571Y-125480714D01*
X148600000Y-125552142D01*
X148742857Y-125623571D01*
X148957142Y-125623571D01*
X147814285Y-124623571D02*
X147814285Y-125623571D01*
X147814285Y-124766428D02*
X147742857Y-124695000D01*
X147600000Y-124623571D01*
X147385714Y-124623571D01*
X147242857Y-124695000D01*
X147171428Y-124837857D01*
X147171428Y-125623571D01*
X145457142Y-124623571D02*
X145100000Y-125623571D01*
X144742857Y-124623571D01*
X144171428Y-125623571D02*
X144171428Y-124623571D01*
X144171428Y-124123571D02*
X144242857Y-124195000D01*
X144171428Y-124266428D01*
X144100000Y-124195000D01*
X144171428Y-124123571D01*
X144171428Y-124266428D01*
X143528571Y-125552142D02*
X143385714Y-125623571D01*
X143100000Y-125623571D01*
X142957142Y-125552142D01*
X142885714Y-125409285D01*
X142885714Y-125337857D01*
X142957142Y-125195000D01*
X143100000Y-125123571D01*
X143314285Y-125123571D01*
X143457142Y-125052142D01*
X143528571Y-124909285D01*
X143528571Y-124837857D01*
X143457142Y-124695000D01*
X143314285Y-124623571D01*
X143100000Y-124623571D01*
X142957142Y-124695000D01*
X142242857Y-125623571D02*
X142242857Y-124623571D01*
X142242857Y-124123571D02*
X142314285Y-124195000D01*
X142242857Y-124266428D01*
X142171428Y-124195000D01*
X142242857Y-124123571D01*
X142242857Y-124266428D01*
X141742857Y-124623571D02*
X141171428Y-124623571D01*
X141528571Y-124123571D02*
X141528571Y-125409285D01*
X141457142Y-125552142D01*
X141314285Y-125623571D01*
X141171428Y-125623571D01*
X184814285Y-128038571D02*
X184814285Y-126538571D01*
X184171428Y-128038571D02*
X184171428Y-127252857D01*
X184242857Y-127110000D01*
X184385714Y-127038571D01*
X184600000Y-127038571D01*
X184742857Y-127110000D01*
X184814285Y-127181428D01*
X183671428Y-127038571D02*
X183100000Y-127038571D01*
X183457142Y-126538571D02*
X183457142Y-127824285D01*
X183385714Y-127967142D01*
X183242857Y-128038571D01*
X183100000Y-128038571D01*
X182814285Y-127038571D02*
X182242857Y-127038571D01*
X182600000Y-126538571D02*
X182600000Y-127824285D01*
X182528571Y-127967142D01*
X182385714Y-128038571D01*
X182242857Y-128038571D01*
X181742857Y-127038571D02*
X181742857Y-128538571D01*
X181742857Y-127110000D02*
X181600000Y-127038571D01*
X181314285Y-127038571D01*
X181171428Y-127110000D01*
X181100000Y-127181428D01*
X181028571Y-127324285D01*
X181028571Y-127752857D01*
X181100000Y-127895714D01*
X181171428Y-127967142D01*
X181314285Y-128038571D01*
X181600000Y-128038571D01*
X181742857Y-127967142D01*
X180457142Y-127967142D02*
X180314285Y-128038571D01*
X180028571Y-128038571D01*
X179885714Y-127967142D01*
X179814285Y-127824285D01*
X179814285Y-127752857D01*
X179885714Y-127610000D01*
X180028571Y-127538571D01*
X180242857Y-127538571D01*
X180385714Y-127467142D01*
X180457142Y-127324285D01*
X180457142Y-127252857D01*
X180385714Y-127110000D01*
X180242857Y-127038571D01*
X180028571Y-127038571D01*
X179885714Y-127110000D01*
X179171428Y-127895714D02*
X179100000Y-127967142D01*
X179171428Y-128038571D01*
X179242857Y-127967142D01*
X179171428Y-127895714D01*
X179171428Y-128038571D01*
X179171428Y-127110000D02*
X179100000Y-127181428D01*
X179171428Y-127252857D01*
X179242857Y-127181428D01*
X179171428Y-127110000D01*
X179171428Y-127252857D01*
X177385714Y-126467142D02*
X178671428Y-128395714D01*
X175814285Y-126467142D02*
X177100000Y-128395714D01*
X174671428Y-127038571D02*
X174671428Y-128252857D01*
X174742857Y-128395714D01*
X174814285Y-128467142D01*
X174957142Y-128538571D01*
X175171428Y-128538571D01*
X175314285Y-128467142D01*
X174671428Y-127967142D02*
X174814285Y-128038571D01*
X175100000Y-128038571D01*
X175242857Y-127967142D01*
X175314285Y-127895714D01*
X175385714Y-127752857D01*
X175385714Y-127324285D01*
X175314285Y-127181428D01*
X175242857Y-127110000D01*
X175100000Y-127038571D01*
X174814285Y-127038571D01*
X174671428Y-127110000D01*
X173957142Y-128038571D02*
X173957142Y-127038571D01*
X173957142Y-126538571D02*
X174028571Y-126610000D01*
X173957142Y-126681428D01*
X173885714Y-126610000D01*
X173957142Y-126538571D01*
X173957142Y-126681428D01*
X173457142Y-127038571D02*
X172885714Y-127038571D01*
X173242857Y-126538571D02*
X173242857Y-127824285D01*
X173171428Y-127967142D01*
X173028571Y-128038571D01*
X172885714Y-128038571D01*
X172385714Y-128038571D02*
X172385714Y-126538571D01*
X171742857Y-128038571D02*
X171742857Y-127252857D01*
X171814285Y-127110000D01*
X171957142Y-127038571D01*
X172171428Y-127038571D01*
X172314285Y-127110000D01*
X172385714Y-127181428D01*
X170385714Y-127038571D02*
X170385714Y-128038571D01*
X171028571Y-127038571D02*
X171028571Y-127824285D01*
X170957142Y-127967142D01*
X170814285Y-128038571D01*
X170600000Y-128038571D01*
X170457142Y-127967142D01*
X170385714Y-127895714D01*
X169671428Y-128038571D02*
X169671428Y-126538571D01*
X169671428Y-127110000D02*
X169528571Y-127038571D01*
X169242857Y-127038571D01*
X169100000Y-127110000D01*
X169028571Y-127181428D01*
X168957142Y-127324285D01*
X168957142Y-127752857D01*
X169028571Y-127895714D01*
X169100000Y-127967142D01*
X169242857Y-128038571D01*
X169528571Y-128038571D01*
X169671428Y-127967142D01*
X168314285Y-127895714D02*
X168242857Y-127967142D01*
X168314285Y-128038571D01*
X168385714Y-127967142D01*
X168314285Y-127895714D01*
X168314285Y-128038571D01*
X166957142Y-127967142D02*
X167100000Y-128038571D01*
X167385714Y-128038571D01*
X167528571Y-127967142D01*
X167600000Y-127895714D01*
X167671428Y-127752857D01*
X167671428Y-127324285D01*
X167600000Y-127181428D01*
X167528571Y-127110000D01*
X167385714Y-127038571D01*
X167100000Y-127038571D01*
X166957142Y-127110000D01*
X166100000Y-128038571D02*
X166242857Y-127967142D01*
X166314285Y-127895714D01*
X166385714Y-127752857D01*
X166385714Y-127324285D01*
X166314285Y-127181428D01*
X166242857Y-127110000D01*
X166100000Y-127038571D01*
X165885714Y-127038571D01*
X165742857Y-127110000D01*
X165671428Y-127181428D01*
X165600000Y-127324285D01*
X165600000Y-127752857D01*
X165671428Y-127895714D01*
X165742857Y-127967142D01*
X165885714Y-128038571D01*
X166100000Y-128038571D01*
X164957142Y-128038571D02*
X164957142Y-127038571D01*
X164957142Y-127181428D02*
X164885714Y-127110000D01*
X164742857Y-127038571D01*
X164528571Y-127038571D01*
X164385714Y-127110000D01*
X164314285Y-127252857D01*
X164314285Y-128038571D01*
X164314285Y-127252857D02*
X164242857Y-127110000D01*
X164100000Y-127038571D01*
X163885714Y-127038571D01*
X163742857Y-127110000D01*
X163671428Y-127252857D01*
X163671428Y-128038571D01*
X161885714Y-126467142D02*
X163171428Y-128395714D01*
X161385714Y-127038571D02*
X161385714Y-128324285D01*
X161457142Y-128467142D01*
X161600000Y-128538571D01*
X161671428Y-128538571D01*
X161385714Y-126538571D02*
X161457142Y-126610000D01*
X161385714Y-126681428D01*
X161314285Y-126610000D01*
X161385714Y-126538571D01*
X161385714Y-126681428D01*
X160028571Y-128038571D02*
X160028571Y-127252857D01*
X160100000Y-127110000D01*
X160242857Y-127038571D01*
X160528571Y-127038571D01*
X160671428Y-127110000D01*
X160028571Y-127967142D02*
X160171428Y-128038571D01*
X160528571Y-128038571D01*
X160671428Y-127967142D01*
X160742857Y-127824285D01*
X160742857Y-127681428D01*
X160671428Y-127538571D01*
X160528571Y-127467142D01*
X160171428Y-127467142D01*
X160028571Y-127395714D01*
X158671428Y-127967142D02*
X158814285Y-128038571D01*
X159100000Y-128038571D01*
X159242857Y-127967142D01*
X159314285Y-127895714D01*
X159385714Y-127752857D01*
X159385714Y-127324285D01*
X159314285Y-127181428D01*
X159242857Y-127110000D01*
X159100000Y-127038571D01*
X158814285Y-127038571D01*
X158671428Y-127110000D01*
X157814285Y-128038571D02*
X157957142Y-127967142D01*
X158028571Y-127895714D01*
X158100000Y-127752857D01*
X158100000Y-127324285D01*
X158028571Y-127181428D01*
X157957142Y-127110000D01*
X157814285Y-127038571D01*
X157600000Y-127038571D01*
X157457142Y-127110000D01*
X157385714Y-127181428D01*
X157314285Y-127324285D01*
X157314285Y-127752857D01*
X157385714Y-127895714D01*
X157457142Y-127967142D01*
X157600000Y-128038571D01*
X157814285Y-128038571D01*
X156671428Y-128038571D02*
X156671428Y-126538571D01*
X156671428Y-127110000D02*
X156528571Y-127038571D01*
X156242857Y-127038571D01*
X156100000Y-127110000D01*
X156028571Y-127181428D01*
X155957142Y-127324285D01*
X155957142Y-127752857D01*
X156028571Y-127895714D01*
X156100000Y-127967142D01*
X156242857Y-128038571D01*
X156528571Y-128038571D01*
X156671428Y-127967142D01*
X154671428Y-128038571D02*
X154671428Y-127252857D01*
X154742857Y-127110000D01*
X154885714Y-127038571D01*
X155171428Y-127038571D01*
X155314285Y-127110000D01*
X154671428Y-127967142D02*
X154814285Y-128038571D01*
X155171428Y-128038571D01*
X155314285Y-127967142D01*
X155385714Y-127824285D01*
X155385714Y-127681428D01*
X155314285Y-127538571D01*
X155171428Y-127467142D01*
X154814285Y-127467142D01*
X154671428Y-127395714D01*
X153957142Y-127038571D02*
X153957142Y-128038571D01*
X153957142Y-127181428D02*
X153885714Y-127110000D01*
X153742857Y-127038571D01*
X153528571Y-127038571D01*
X153385714Y-127110000D01*
X153314285Y-127252857D01*
X153314285Y-128038571D01*
X152814285Y-127038571D02*
X152242857Y-127038571D01*
X152600000Y-126538571D02*
X152600000Y-127824285D01*
X152528571Y-127967142D01*
X152385714Y-128038571D01*
X152242857Y-128038571D01*
X151528571Y-128038571D02*
X151671428Y-127967142D01*
X151742857Y-127895714D01*
X151814285Y-127752857D01*
X151814285Y-127324285D01*
X151742857Y-127181428D01*
X151671428Y-127110000D01*
X151528571Y-127038571D01*
X151314285Y-127038571D01*
X151171428Y-127110000D01*
X151100000Y-127181428D01*
X151028571Y-127324285D01*
X151028571Y-127752857D01*
X151100000Y-127895714D01*
X151171428Y-127967142D01*
X151314285Y-128038571D01*
X151528571Y-128038571D01*
X149742857Y-127038571D02*
X149742857Y-128038571D01*
X150385714Y-127038571D02*
X150385714Y-127824285D01*
X150314285Y-127967142D01*
X150171428Y-128038571D01*
X149957142Y-128038571D01*
X149814285Y-127967142D01*
X149742857Y-127895714D01*
X149028571Y-127038571D02*
X149028571Y-128038571D01*
X149028571Y-127181428D02*
X148957142Y-127110000D01*
X148814285Y-127038571D01*
X148600000Y-127038571D01*
X148457142Y-127110000D01*
X148385714Y-127252857D01*
X148385714Y-128038571D01*
M02*
