<?xml version="1.0" encoding="iso-8859-1"?>
<!-- Generator: Adobe Illustrator 22.0.0, SVG Export Plug-In . SVG Version: 6.00 Build 0)  -->
<svg version="1.1" xmlns="http://www.w3.org/2000/svg" xmlns:xlink="http://www.w3.org/1999/xlink" x="0px" y="0px"
	 viewBox="0 0 357.934 431.525" style="enable-background:new 0 0 357.934 431.525;" xml:space="preserve">
<g id="simple-santa-hat-pattern-1">
	<path style="fill:none;stroke:#000000;stroke-width:2;stroke-linecap:round;stroke-linejoin:round;stroke-miterlimit:10;" d="
		M317.263,91.664c-12.618,0-23.836,5.91-31.102,15.092L172.837,1l-72.213,167.326l-52.959,122.71
		C20.436,299.308,1,320.664,1,345.783v26.283c0,32.287,32.048,58.46,71.581,58.46h200.512c39.533,0,71.581-26.173,71.581-58.46
		v-26.283c0-25.119-19.436-46.475-46.665-54.746l-52.959-122.71l-18.294-42.389h51.246c-0.242,1.77-0.41,3.563-0.41,5.399
		c0,21.91,17.761,39.671,39.671,39.671c21.91,0,39.671-17.761,39.671-39.671C356.934,109.426,339.173,91.664,317.263,91.664z"/>
</g>
<g id="Layer_1">
</g>
</svg>
