<?xml version="1.0" encoding="iso-8859-1"?>
<!-- Generator: Adobe Illustrator 22.0.0, SVG Export Plug-In . SVG Version: 6.00 Build 0)  -->
<svg version="1.1" xmlns="http://www.w3.org/2000/svg" xmlns:xlink="http://www.w3.org/1999/xlink" x="0px" y="0px"
	 viewBox="0 0 330.151 430.441" style="enable-background:new 0 0 330.151 430.441;" xml:space="preserve">
<g id="simple-santa-hat-pattern-4">
	<path style="fill:none;stroke:#000000;stroke-width:2;stroke-linecap:round;stroke-linejoin:round;stroke-miterlimit:10;" d="
		M260.803,429.441c37.747,0,68.348-30.6,68.348-68.348v-30.729c0-26.374-14.962-49.217-36.838-60.614
		c-4.003-13.616-9.819-27.013-15.9-39.588c-15.286-31.616-32.682-65.539-26.218-100.057c0.908-4.851,2.266-9.765,3.341-14.666
		c4.188,0.962,8.53,1.519,13.01,1.519c32.022,0,57.98-25.958,57.98-57.98c0-32.022-25.958-57.98-57.98-57.98
		c-32.021,0-57.98,25.958-57.98,57.98c0,4.942,0.685,9.712,1.848,14.291c-1.887,0.148-3.756,0.348-5.571,0.641
		c-28.514,4.614-54.637,19.458-76.412,38.437c-47.337,41.258-74.006,99.406-94.539,159.665C14.197,284.01,1,305.619,1,330.365
		v30.729c0,37.747,30.6,68.348,68.348,68.348H260.803z"/>
</g>
<g id="Layer_1">
</g>
</svg>
