<?xml version="1.0" encoding="iso-8859-1"?>
<!-- Generator: Adobe Illustrator 22.0.0, SVG Export Plug-In . SVG Version: 6.00 Build 0)  -->
<svg version="1.1" xmlns="http://www.w3.org/2000/svg" xmlns:xlink="http://www.w3.org/1999/xlink" x="0px" y="0px"
	 viewBox="0 0 311.161 432" style="enable-background:new 0 0 311.161 432;" xml:space="preserve">
<g id="simple-santa-hat-pattern-5">
	<path style="fill:none;stroke:#000000;stroke-width:2;stroke-linecap:round;stroke-linejoin:round;stroke-miterlimit:10;" d="
		M230.548,431c33.352,0,60.388-27.037,60.388-60.388v-27.15c0-27.725-18.708-51.028-44.171-58.121
		c-9.548-30.903-15.667-52.217-15.667-76.707c0-60.577,15.716-97.694,25.111-124.716c3.708,1.063,7.61,1.666,11.66,1.666
		c23.357,0,42.292-18.935,42.292-42.292C310.161,19.935,291.226,1,267.869,1c-23.357,0-42.292,18.935-42.292,42.292
		c0,6.674,1.588,12.961,4.341,18.574C170.857,104.535,85.388,201.182,45.486,285.26C19.863,292.248,1,315.623,1,343.462v27.15
		C1,403.963,28.037,431,61.388,431H230.548z"/>
</g>
<g id="Layer_1">
</g>
</svg>
