<?xml version="1.0" encoding="iso-8859-1"?>
<!-- Generator: Adobe Illustrator 22.0.0, SVG Export Plug-In . SVG Version: 6.00 Build 0)  -->
<svg version="1.1" xmlns="http://www.w3.org/2000/svg" xmlns:xlink="http://www.w3.org/1999/xlink" x="0px" y="0px"
	 viewBox="0 0 432 399.764" style="enable-background:new 0 0 432 399.764;" xml:space="preserve">
<g id="simple-santa-hat-pattern-6">
	<path style="fill:none;stroke:#000000;stroke-width:2;stroke-linecap:round;stroke-linejoin:round;stroke-miterlimit:10;" d="
		M394.946,103.386C366.754,60.952,294.022,0.78,262.834,1.001C230.692,1.229,56.332,75.426,46.849,123.719
		c-6.992,35.604,0.969,119.237,3.375,180.334c-0.609-0.023-1.207-0.092-1.822-0.092C22.223,303.96,1,325.183,1,351.362
		c0,26.179,21.223,47.402,47.402,47.402c26.179,0,47.402-21.222,47.402-47.402c0-15.296-7.276-28.862-18.522-37.529
		c12.449-23.859,26.547-53.514,39.602-80.273c10.66,4.958,22.965,7.829,36.111,7.829h204.87c40.392,0,73.137-26.742,73.137-59.73
		v-26.854C431,132.885,416.498,113.777,394.946,103.386z"/>
</g>
<g id="Layer_1">
</g>
</svg>
