<?xml version="1.0" encoding="iso-8859-1"?>
<!-- Generator: Adobe Illustrator 22.0.0, SVG Export Plug-In . SVG Version: 6.00 Build 0)  -->
<svg version="1.1" xmlns="http://www.w3.org/2000/svg" xmlns:xlink="http://www.w3.org/1999/xlink" x="0px" y="0px"
	 viewBox="0 0 432 298.605" style="enable-background:new 0 0 432 298.605;" xml:space="preserve">
<g id="simple-santa-hat-pattern-10">
	<path style="fill:none;stroke:#000000;stroke-width:2;stroke-linecap:round;stroke-linejoin:round;stroke-miterlimit:10;" d="
		M395.778,38.379c-19.452,0-35.221,15.769-35.221,35.222c0,1.795,0.177,3.544,0.436,5.266c-20.16-1.629-40.136-8.835-58.347-18.064
		c-26.321-13.34-50.368-30.891-76.952-43.698C199.11,4.298,168.557-3.629,140.044,3.969c-31.797,8.473-55.76,34.695-73.522,62.396
		c-19.16,29.882-33.283,62.961-41.781,97.423C10.392,173.979,1,190.696,1,209.636v31.726c0,31.062,25.181,56.243,56.243,56.243
		h170.169c31.062,0,56.243-25.181,56.243-56.243v-31.726c0-18.886-9.34-35.558-23.62-45.757c1.504-12.539,7.35-24.618,17.611-31.782
		c14.303-9.984,33.28-8.652,50.396-12.016c15.879-3.12,30.759-10.81,42.749-21.666c6.38,6.424,15.217,10.406,24.987,10.406
		C415.231,108.822,431,93.053,431,73.6S415.231,38.379,395.778,38.379z"/>
</g>
<g id="Layer_1">
</g>
</svg>
