<?xml version="1.0" encoding="iso-8859-1"?>
<!-- Generator: Adobe Illustrator 22.0.0, SVG Export Plug-In . SVG Version: 6.00 Build 0)  -->
<svg version="1.1" xmlns="http://www.w3.org/2000/svg" xmlns:xlink="http://www.w3.org/1999/xlink" x="0px" y="0px"
	 viewBox="0 0 432 387.325" style="enable-background:new 0 0 432 387.325;" xml:space="preserve">
<g id="simple-santa-hat-pattern-9">
	<path style="fill:none;stroke:#000000;stroke-width:2;stroke-linecap:round;stroke-linejoin:round;stroke-miterlimit:10;" d="
		M389.467,61.517c-15.997,0-29.859,9.057-36.797,22.311c-45.214-25.478-102.194-62.028-109.181-66.799
		c-34.856-23.802-88.846-21.326-118.224,8.979C78.049,74.712,55.16,155.973,42.068,210.908C17.718,223.284,1,248.509,1,277.694
		v33.692c0,41.388,33.551,74.94,74.94,74.94H285.86c41.388,0,74.94-33.551,74.94-74.94v-33.692
		c0-28.352-15.752-53.015-38.974-65.746c-5.998-33.425-12.955-66.658-22.873-99.025c16.556-0.319,33.093-1.465,49.538-3.388
		c3.121,19.849,20.251,35.048,40.977,35.048c22.938,0,41.533-18.595,41.533-41.533C431,80.112,412.405,61.517,389.467,61.517z"/>
</g>
<g id="Layer_1">
</g>
</svg>
