<?xml version="1.0" encoding="iso-8859-1"?>
<!-- Generator: Adobe Illustrator 22.0.0, SVG Export Plug-In . SVG Version: 6.00 Build 0)  -->
<svg version="1.1" xmlns="http://www.w3.org/2000/svg" xmlns:xlink="http://www.w3.org/1999/xlink" x="0px" y="0px"
	 viewBox="0 0 432 286.171" style="enable-background:new 0 0 432 286.171;" xml:space="preserve">
<g id="simple-santa-hat-pattern-7">
	<path style="fill:none;stroke:#000000;stroke-width:2;stroke-linecap:round;stroke-linejoin:round;stroke-miterlimit:10;" d="
		M63.144,285.171h188.023c34.321,0,62.144-27.823,62.144-62.144v-35.054c0-25.554-15.435-47.485-37.481-57.033
		c1.633-5.241,3.939-10.402,8.301-13.612c10.618-7.815,25.063,0.139,37.194,5.301c10.088,4.293,21.044,6.402,32.005,6.444
		c1.653,19.971,18.355,35.672,38.753,35.672c21.493,0,38.917-17.424,38.917-38.917s-17.424-38.917-38.917-38.917
		c-15.279,0-28.464,8.826-34.832,21.638c-19.86-18.684-36.292-41.463-56.703-59.785C251.553,4.781,178.533-10.55,115.985,10.013
		c-23.246,7.643-45.543,20.366-60.238,39.933c-14.22,18.935-20.294,42.796-23.022,66.318c-0.715,6.164-1.218,12.349-1.635,18.542
		C13.081,145.689,1,165.395,1,187.972v35.054C1,257.348,28.823,285.171,63.144,285.171z"/>
</g>
<g id="Layer_1">
</g>
</svg>
