<?xml version="1.0" encoding="iso-8859-1"?>
<!-- Generator: Adobe Illustrator 22.0.0, SVG Export Plug-In . SVG Version: 6.00 Build 0)  -->
<svg version="1.1" xmlns="http://www.w3.org/2000/svg" xmlns:xlink="http://www.w3.org/1999/xlink" x="0px" y="0px"
	 viewBox="0 0 321.442 424.111" style="enable-background:new 0 0 321.442 424.111;" xml:space="preserve">
<g id="simple-santa-hat-pattern-2">
	<path style="fill:none;stroke:#000000;stroke-width:2;stroke-linecap:round;stroke-linejoin:round;stroke-miterlimit:10;" d="
		M270.279,291.732l-42.436-98.33L175.331,71.727c13.094-5.659,22.264-18.68,22.264-33.853C197.595,17.509,181.086,1,160.721,1
		c-20.365,0-36.874,16.509-36.874,36.874c0,15.172,9.17,28.193,22.264,33.853L93.599,193.402l-42.436,98.33
		C22.349,297.698,1,318.956,1,344.344v24.43c0,30.01,29.788,54.338,66.534,54.338h186.374c36.746,0,66.534-24.328,66.534-54.338
		v-24.43C320.442,318.956,299.093,297.698,270.279,291.732z"/>
</g>
<g id="Layer_1">
</g>
</svg>
