<?xml version="1.0" encoding="iso-8859-1"?>
<!-- Generator: Adobe Illustrator 22.0.0, SVG Export Plug-In . SVG Version: 6.00 Build 0)  -->
<svg version="1.1" xmlns="http://www.w3.org/2000/svg" xmlns:xlink="http://www.w3.org/1999/xlink" x="0px" y="0px"
	 viewBox="0 0 432 392.005" style="enable-background:new 0 0 432 392.005;" xml:space="preserve">
<g id="simple-santa-hat-pattern-8">
	<path style="fill:none;stroke:#000000;stroke-width:2;stroke-linecap:round;stroke-linejoin:round;stroke-miterlimit:10;" d="
		M431,355.257c0-19.743-16.005-35.748-35.748-35.748c-2.057,0-4.06,0.212-6.022,0.546c-27.334-59.313-40.549-125.156-51.742-189.94
		c-4.248-24.585-8.38-49.53-18.676-72.255c-10.296-22.725-27.706-43.376-51.16-51.883c-19.866-7.205-41.738-5.09-62.755-2.879
		c-37.711,3.967-77.271,8.605-108.227,30.504c-26.056,18.433-43.115,47.445-52.854,77.84c-2.45,7.646-4.476,15.398-6.189,23.224
		C16.22,142.898,1,163.602,1,187.909v32.2c0,31.527,25.557,57.084,57.084,57.084h172.713c30.443,0,55.248-23.85,56.922-53.875
		c18.257,31.59,37.649,62.465,59.621,91.57c5.46,7.232,11.376,14.498,17.816,21.128c-3.561,5.558-5.652,12.149-5.652,19.241
		c0,19.743,16.005,35.748,35.748,35.748C414.995,391.005,431,375,431,355.257z"/>
</g>
<g id="Layer_1">
</g>
</svg>
