<?xml version="1.0" encoding="iso-8859-1"?>
<!-- Generator: Adobe Illustrator 22.0.0, SVG Export Plug-In . SVG Version: 6.00 Build 0)  -->
<svg version="1.1" xmlns="http://www.w3.org/2000/svg" xmlns:xlink="http://www.w3.org/1999/xlink" x="0px" y="0px"
	 viewBox="0 0 432 408.147" style="enable-background:new 0 0 432 408.147;" xml:space="preserve">
<g id="simple-santa-hat-pattern-3">
	<path style="fill:none;stroke:#000000;stroke-width:2;stroke-linecap:round;stroke-linejoin:round;stroke-miterlimit:10;" d="
		M86.889,335.475v-32.223c0-32.268,21.33-59.542,50.655-68.526c5.21-37.18,5.216-74.384-8.211-108.231
		c-7.766-19.576-19.968-36.749-34.901-49.896c-8.726,14.817-24.798,24.789-43.238,24.789C23.473,101.389,1,78.916,1,51.194
		C1,23.473,23.473,1,51.195,1c23.994,0,44.025,16.847,48.987,39.349c61.958-15.475,129.528-2.283,182.55,37.556
		c48.189,36.208,83.241,93.603,98.036,156.944C409.876,243.964,431,271.138,431,303.252v32.223
		c0,39.583-32.088,71.672-71.672,71.672H158.561C118.978,407.147,86.889,375.059,86.889,335.475z"/>
</g>
<g id="Layer_1">
</g>
</svg>
